<?xml version="1.0" encoding="UTF-8" standalone="no"?>
<!-- This is a Stata 19.5 generated SVG file (http://www.stata.com) -->

<svg version="1.1" width="7.500in" height="5.000in" viewBox="0 0 5400 3600" xmlns="http://www.w3.org/2000/svg" xmlns:xlink="http://www.w3.org/1999/xlink">
	<desc>Stata Graph - Graph</desc>
	<rect x="0" y="0" width="5400" height="3600" style="fill:#FFFFFF;stroke:none"/>
	<rect x="0.00" y="0.00" width="5400.00" height="3600.00" style="fill:#FFFFFF"/>
	<rect x="3.60" y="3.60" width="5392.80" height="3592.80" style="fill:none;stroke:#FFFFFF;stroke-width:7.20"/>
	<rect x="1653.08" y="126.06" width="3620.87" height="2597.61" style="fill:#FFFFFF"/>
	<rect x="1655.95" y="128.94" width="3615.11" height="2591.85" style="fill:none;stroke:#FFFFFF;stroke-width:5.76"/>
	<line x1="1653.08" y1="2723.67" x2="1653.08" y2="2694.81" style="stroke:#D0D0D0;stroke-width:4.32"/>
	<line x1="1653.08" y1="2669.67" x2="1653.08" y2="2640.81" style="stroke:#D0D0D0;stroke-width:4.32"/>
	<line x1="1653.08" y1="2615.67" x2="1653.08" y2="2586.81" style="stroke:#D0D0D0;stroke-width:4.32"/>
	<line x1="1653.08" y1="2561.67" x2="1653.08" y2="2532.81" style="stroke:#D0D0D0;stroke-width:4.32"/>
	<line x1="1653.08" y1="2507.66" x2="1653.08" y2="2478.81" style="stroke:#D0D0D0;stroke-width:4.32"/>
	<line x1="1653.08" y1="2453.66" x2="1653.08" y2="2424.81" style="stroke:#D0D0D0;stroke-width:4.32"/>
	<line x1="1653.08" y1="2399.66" x2="1653.08" y2="2370.81" style="stroke:#D0D0D0;stroke-width:4.32"/>
	<line x1="1653.08" y1="2345.66" x2="1653.08" y2="2316.80" style="stroke:#D0D0D0;stroke-width:4.32"/>
	<line x1="1653.08" y1="2291.66" x2="1653.08" y2="2262.80" style="stroke:#D0D0D0;stroke-width:4.32"/>
	<line x1="1653.08" y1="2237.66" x2="1653.08" y2="2208.80" style="stroke:#D0D0D0;stroke-width:4.32"/>
	<line x1="1653.08" y1="2183.66" x2="1653.08" y2="2154.80" style="stroke:#D0D0D0;stroke-width:4.32"/>
	<line x1="1653.08" y1="2129.66" x2="1653.08" y2="2100.80" style="stroke:#D0D0D0;stroke-width:4.32"/>
	<line x1="1653.08" y1="2075.66" x2="1653.08" y2="2046.80" style="stroke:#D0D0D0;stroke-width:4.32"/>
	<line x1="1653.08" y1="2021.66" x2="1653.08" y2="1992.80" style="stroke:#D0D0D0;stroke-width:4.32"/>
	<line x1="1653.08" y1="1967.66" x2="1653.08" y2="1938.80" style="stroke:#D0D0D0;stroke-width:4.32"/>
	<line x1="1653.08" y1="1913.65" x2="1653.08" y2="1884.80" style="stroke:#D0D0D0;stroke-width:4.32"/>
	<line x1="1653.08" y1="1859.65" x2="1653.08" y2="1830.80" style="stroke:#D0D0D0;stroke-width:4.32"/>
	<line x1="1653.08" y1="1805.65" x2="1653.08" y2="1776.80" style="stroke:#D0D0D0;stroke-width:4.32"/>
	<line x1="1653.08" y1="1751.65" x2="1653.08" y2="1722.80" style="stroke:#D0D0D0;stroke-width:4.32"/>
	<line x1="1653.08" y1="1697.65" x2="1653.08" y2="1668.79" style="stroke:#D0D0D0;stroke-width:4.32"/>
	<line x1="1653.08" y1="1643.65" x2="1653.08" y2="1614.79" style="stroke:#D0D0D0;stroke-width:4.32"/>
	<line x1="1653.08" y1="1589.65" x2="1653.08" y2="1560.79" style="stroke:#D0D0D0;stroke-width:4.32"/>
	<line x1="1653.08" y1="1535.65" x2="1653.08" y2="1506.79" style="stroke:#D0D0D0;stroke-width:4.32"/>
	<line x1="1653.08" y1="1481.65" x2="1653.08" y2="1452.79" style="stroke:#D0D0D0;stroke-width:4.32"/>
	<line x1="1653.08" y1="1427.65" x2="1653.08" y2="1398.79" style="stroke:#D0D0D0;stroke-width:4.32"/>
	<line x1="1653.08" y1="1373.65" x2="1653.08" y2="1344.79" style="stroke:#D0D0D0;stroke-width:4.32"/>
	<line x1="1653.08" y1="1319.65" x2="1653.08" y2="1290.79" style="stroke:#D0D0D0;stroke-width:4.32"/>
	<line x1="1653.08" y1="1265.64" x2="1653.08" y2="1236.79" style="stroke:#D0D0D0;stroke-width:4.32"/>
	<line x1="1653.08" y1="1211.64" x2="1653.08" y2="1182.79" style="stroke:#D0D0D0;stroke-width:4.32"/>
	<line x1="1653.08" y1="1157.64" x2="1653.08" y2="1128.79" style="stroke:#D0D0D0;stroke-width:4.32"/>
	<line x1="1653.08" y1="1103.64" x2="1653.08" y2="1074.79" style="stroke:#D0D0D0;stroke-width:4.32"/>
	<line x1="1653.08" y1="1049.64" x2="1653.08" y2="1020.78" style="stroke:#D0D0D0;stroke-width:4.32"/>
	<line x1="1653.08" y1="995.64" x2="1653.08" y2="966.78" style="stroke:#D0D0D0;stroke-width:4.32"/>
	<line x1="1653.08" y1="941.64" x2="1653.08" y2="912.78" style="stroke:#D0D0D0;stroke-width:4.32"/>
	<line x1="1653.08" y1="887.64" x2="1653.08" y2="858.78" style="stroke:#D0D0D0;stroke-width:4.32"/>
	<line x1="1653.08" y1="833.64" x2="1653.08" y2="804.78" style="stroke:#D0D0D0;stroke-width:4.32"/>
	<line x1="1653.08" y1="779.64" x2="1653.08" y2="750.78" style="stroke:#D0D0D0;stroke-width:4.32"/>
	<line x1="1653.08" y1="725.64" x2="1653.08" y2="696.78" style="stroke:#D0D0D0;stroke-width:4.32"/>
	<line x1="1653.08" y1="671.64" x2="1653.08" y2="642.78" style="stroke:#D0D0D0;stroke-width:4.32"/>
	<line x1="1653.08" y1="617.63" x2="1653.08" y2="588.78" style="stroke:#D0D0D0;stroke-width:4.32"/>
	<line x1="1653.08" y1="563.63" x2="1653.08" y2="534.78" style="stroke:#D0D0D0;stroke-width:4.32"/>
	<line x1="1653.08" y1="509.63" x2="1653.08" y2="480.78" style="stroke:#D0D0D0;stroke-width:4.32"/>
	<line x1="1653.08" y1="455.63" x2="1653.08" y2="426.78" style="stroke:#D0D0D0;stroke-width:4.32"/>
	<line x1="1653.08" y1="401.63" x2="1653.08" y2="372.77" style="stroke:#D0D0D0;stroke-width:4.32"/>
	<line x1="1653.08" y1="347.63" x2="1653.08" y2="318.77" style="stroke:#D0D0D0;stroke-width:4.32"/>
	<line x1="1653.08" y1="293.63" x2="1653.08" y2="264.77" style="stroke:#D0D0D0;stroke-width:4.32"/>
	<line x1="1653.08" y1="239.63" x2="1653.08" y2="210.77" style="stroke:#D0D0D0;stroke-width:4.32"/>
	<line x1="1653.08" y1="185.63" x2="1653.08" y2="156.77" style="stroke:#D0D0D0;stroke-width:4.32"/>
	<line x1="1653.08" y1="131.63" x2="1653.08" y2="126.06" style="stroke:#D0D0D0;stroke-width:4.32"/>
	<line x1="2357.10" y1="2723.67" x2="2357.10" y2="2694.81" style="stroke:#D0D0D0;stroke-width:4.32"/>
	<line x1="2357.10" y1="2669.67" x2="2357.10" y2="2640.81" style="stroke:#D0D0D0;stroke-width:4.32"/>
	<line x1="2357.10" y1="2615.67" x2="2357.10" y2="2586.81" style="stroke:#D0D0D0;stroke-width:4.32"/>
	<line x1="2357.10" y1="2561.67" x2="2357.10" y2="2532.81" style="stroke:#D0D0D0;stroke-width:4.32"/>
	<line x1="2357.10" y1="2507.66" x2="2357.10" y2="2478.81" style="stroke:#D0D0D0;stroke-width:4.32"/>
	<line x1="2357.10" y1="2453.66" x2="2357.10" y2="2424.81" style="stroke:#D0D0D0;stroke-width:4.32"/>
	<line x1="2357.10" y1="2399.66" x2="2357.10" y2="2370.81" style="stroke:#D0D0D0;stroke-width:4.32"/>
	<line x1="2357.10" y1="2345.66" x2="2357.10" y2="2316.80" style="stroke:#D0D0D0;stroke-width:4.32"/>
	<line x1="2357.10" y1="2291.66" x2="2357.10" y2="2262.80" style="stroke:#D0D0D0;stroke-width:4.32"/>
	<line x1="2357.10" y1="2237.66" x2="2357.10" y2="2208.80" style="stroke:#D0D0D0;stroke-width:4.32"/>
	<line x1="2357.10" y1="2183.66" x2="2357.10" y2="2154.80" style="stroke:#D0D0D0;stroke-width:4.32"/>
	<line x1="2357.10" y1="2129.66" x2="2357.10" y2="2100.80" style="stroke:#D0D0D0;stroke-width:4.32"/>
	<line x1="2357.10" y1="2075.66" x2="2357.10" y2="2046.80" style="stroke:#D0D0D0;stroke-width:4.32"/>
	<line x1="2357.10" y1="2021.66" x2="2357.10" y2="1992.80" style="stroke:#D0D0D0;stroke-width:4.32"/>
	<line x1="2357.10" y1="1967.66" x2="2357.10" y2="1938.80" style="stroke:#D0D0D0;stroke-width:4.32"/>
	<line x1="2357.10" y1="1913.65" x2="2357.10" y2="1884.80" style="stroke:#D0D0D0;stroke-width:4.32"/>
	<line x1="2357.10" y1="1859.65" x2="2357.10" y2="1830.80" style="stroke:#D0D0D0;stroke-width:4.32"/>
	<line x1="2357.10" y1="1805.65" x2="2357.10" y2="1776.80" style="stroke:#D0D0D0;stroke-width:4.32"/>
	<line x1="2357.10" y1="1751.65" x2="2357.10" y2="1722.80" style="stroke:#D0D0D0;stroke-width:4.32"/>
	<line x1="2357.10" y1="1697.65" x2="2357.10" y2="1668.79" style="stroke:#D0D0D0;stroke-width:4.32"/>
	<line x1="2357.10" y1="1643.65" x2="2357.10" y2="1614.79" style="stroke:#D0D0D0;stroke-width:4.32"/>
	<line x1="2357.10" y1="1589.65" x2="2357.10" y2="1560.79" style="stroke:#D0D0D0;stroke-width:4.32"/>
	<line x1="2357.10" y1="1535.65" x2="2357.10" y2="1506.79" style="stroke:#D0D0D0;stroke-width:4.32"/>
	<line x1="2357.10" y1="1481.65" x2="2357.10" y2="1452.79" style="stroke:#D0D0D0;stroke-width:4.32"/>
	<line x1="2357.10" y1="1427.65" x2="2357.10" y2="1398.79" style="stroke:#D0D0D0;stroke-width:4.32"/>
	<line x1="2357.10" y1="1373.65" x2="2357.10" y2="1344.79" style="stroke:#D0D0D0;stroke-width:4.32"/>
	<line x1="2357.10" y1="1319.65" x2="2357.10" y2="1290.79" style="stroke:#D0D0D0;stroke-width:4.32"/>
	<line x1="2357.10" y1="1265.64" x2="2357.10" y2="1236.79" style="stroke:#D0D0D0;stroke-width:4.32"/>
	<line x1="2357.10" y1="1211.64" x2="2357.10" y2="1182.79" style="stroke:#D0D0D0;stroke-width:4.32"/>
	<line x1="2357.10" y1="1157.64" x2="2357.10" y2="1128.79" style="stroke:#D0D0D0;stroke-width:4.32"/>
	<line x1="2357.10" y1="1103.64" x2="2357.10" y2="1074.79" style="stroke:#D0D0D0;stroke-width:4.32"/>
	<line x1="2357.10" y1="1049.64" x2="2357.10" y2="1020.78" style="stroke:#D0D0D0;stroke-width:4.32"/>
	<line x1="2357.10" y1="995.64" x2="2357.10" y2="966.78" style="stroke:#D0D0D0;stroke-width:4.32"/>
	<line x1="2357.10" y1="941.64" x2="2357.10" y2="912.78" style="stroke:#D0D0D0;stroke-width:4.32"/>
	<line x1="2357.10" y1="887.64" x2="2357.10" y2="858.78" style="stroke:#D0D0D0;stroke-width:4.32"/>
	<line x1="2357.10" y1="833.64" x2="2357.10" y2="804.78" style="stroke:#D0D0D0;stroke-width:4.32"/>
	<line x1="2357.10" y1="779.64" x2="2357.10" y2="750.78" style="stroke:#D0D0D0;stroke-width:4.32"/>
	<line x1="2357.10" y1="725.64" x2="2357.10" y2="696.78" style="stroke:#D0D0D0;stroke-width:4.32"/>
	<line x1="2357.10" y1="671.64" x2="2357.10" y2="642.78" style="stroke:#D0D0D0;stroke-width:4.32"/>
	<line x1="2357.10" y1="617.63" x2="2357.10" y2="588.78" style="stroke:#D0D0D0;stroke-width:4.32"/>
	<line x1="2357.10" y1="563.63" x2="2357.10" y2="534.78" style="stroke:#D0D0D0;stroke-width:4.32"/>
	<line x1="2357.10" y1="509.63" x2="2357.10" y2="480.78" style="stroke:#D0D0D0;stroke-width:4.32"/>
	<line x1="2357.10" y1="455.63" x2="2357.10" y2="426.78" style="stroke:#D0D0D0;stroke-width:4.32"/>
	<line x1="2357.10" y1="401.63" x2="2357.10" y2="372.77" style="stroke:#D0D0D0;stroke-width:4.32"/>
	<line x1="2357.10" y1="347.63" x2="2357.10" y2="318.77" style="stroke:#D0D0D0;stroke-width:4.32"/>
	<line x1="2357.10" y1="293.63" x2="2357.10" y2="264.77" style="stroke:#D0D0D0;stroke-width:4.32"/>
	<line x1="2357.10" y1="239.63" x2="2357.10" y2="210.77" style="stroke:#D0D0D0;stroke-width:4.32"/>
	<line x1="2357.10" y1="185.63" x2="2357.10" y2="156.77" style="stroke:#D0D0D0;stroke-width:4.32"/>
	<line x1="2357.10" y1="131.63" x2="2357.10" y2="126.06" style="stroke:#D0D0D0;stroke-width:4.32"/>
	<line x1="3061.13" y1="2723.67" x2="3061.13" y2="2694.81" style="stroke:#D0D0D0;stroke-width:4.32"/>
	<line x1="3061.13" y1="2669.67" x2="3061.13" y2="2640.81" style="stroke:#D0D0D0;stroke-width:4.32"/>
	<line x1="3061.13" y1="2615.67" x2="3061.13" y2="2586.81" style="stroke:#D0D0D0;stroke-width:4.32"/>
	<line x1="3061.13" y1="2561.67" x2="3061.13" y2="2532.81" style="stroke:#D0D0D0;stroke-width:4.32"/>
	<line x1="3061.13" y1="2507.66" x2="3061.13" y2="2478.81" style="stroke:#D0D0D0;stroke-width:4.32"/>
	<line x1="3061.13" y1="2453.66" x2="3061.13" y2="2424.81" style="stroke:#D0D0D0;stroke-width:4.32"/>
	<line x1="3061.13" y1="2399.66" x2="3061.13" y2="2370.81" style="stroke:#D0D0D0;stroke-width:4.32"/>
	<line x1="3061.13" y1="2345.66" x2="3061.13" y2="2316.80" style="stroke:#D0D0D0;stroke-width:4.32"/>
	<line x1="3061.13" y1="2291.66" x2="3061.13" y2="2262.80" style="stroke:#D0D0D0;stroke-width:4.32"/>
	<line x1="3061.13" y1="2237.66" x2="3061.13" y2="2208.80" style="stroke:#D0D0D0;stroke-width:4.32"/>
	<line x1="3061.13" y1="2183.66" x2="3061.13" y2="2154.80" style="stroke:#D0D0D0;stroke-width:4.32"/>
	<line x1="3061.13" y1="2129.66" x2="3061.13" y2="2100.80" style="stroke:#D0D0D0;stroke-width:4.32"/>
	<line x1="3061.13" y1="2075.66" x2="3061.13" y2="2046.80" style="stroke:#D0D0D0;stroke-width:4.32"/>
	<line x1="3061.13" y1="2021.66" x2="3061.13" y2="1992.80" style="stroke:#D0D0D0;stroke-width:4.32"/>
	<line x1="3061.13" y1="1967.66" x2="3061.13" y2="1938.80" style="stroke:#D0D0D0;stroke-width:4.32"/>
	<line x1="3061.13" y1="1913.65" x2="3061.13" y2="1884.80" style="stroke:#D0D0D0;stroke-width:4.32"/>
	<line x1="3061.13" y1="1859.65" x2="3061.13" y2="1830.80" style="stroke:#D0D0D0;stroke-width:4.32"/>
	<line x1="3061.13" y1="1805.65" x2="3061.13" y2="1776.80" style="stroke:#D0D0D0;stroke-width:4.32"/>
	<line x1="3061.13" y1="1751.65" x2="3061.13" y2="1722.80" style="stroke:#D0D0D0;stroke-width:4.32"/>
	<line x1="3061.13" y1="1697.65" x2="3061.13" y2="1668.79" style="stroke:#D0D0D0;stroke-width:4.32"/>
	<line x1="3061.13" y1="1643.65" x2="3061.13" y2="1614.79" style="stroke:#D0D0D0;stroke-width:4.32"/>
	<line x1="3061.13" y1="1589.65" x2="3061.13" y2="1560.79" style="stroke:#D0D0D0;stroke-width:4.32"/>
	<line x1="3061.13" y1="1535.65" x2="3061.13" y2="1506.79" style="stroke:#D0D0D0;stroke-width:4.32"/>
	<line x1="3061.13" y1="1481.65" x2="3061.13" y2="1452.79" style="stroke:#D0D0D0;stroke-width:4.32"/>
	<line x1="3061.13" y1="1427.65" x2="3061.13" y2="1398.79" style="stroke:#D0D0D0;stroke-width:4.32"/>
	<line x1="3061.13" y1="1373.65" x2="3061.13" y2="1344.79" style="stroke:#D0D0D0;stroke-width:4.32"/>
	<line x1="3061.13" y1="1319.65" x2="3061.13" y2="1290.79" style="stroke:#D0D0D0;stroke-width:4.32"/>
	<line x1="3061.13" y1="1265.64" x2="3061.13" y2="1236.79" style="stroke:#D0D0D0;stroke-width:4.32"/>
	<line x1="3061.13" y1="1211.64" x2="3061.13" y2="1182.79" style="stroke:#D0D0D0;stroke-width:4.32"/>
	<line x1="3061.13" y1="1157.64" x2="3061.13" y2="1128.79" style="stroke:#D0D0D0;stroke-width:4.32"/>
	<line x1="3061.13" y1="1103.64" x2="3061.13" y2="1074.79" style="stroke:#D0D0D0;stroke-width:4.32"/>
	<line x1="3061.13" y1="1049.64" x2="3061.13" y2="1020.78" style="stroke:#D0D0D0;stroke-width:4.32"/>
	<line x1="3061.13" y1="995.64" x2="3061.13" y2="966.78" style="stroke:#D0D0D0;stroke-width:4.32"/>
	<line x1="3061.13" y1="941.64" x2="3061.13" y2="912.78" style="stroke:#D0D0D0;stroke-width:4.32"/>
	<line x1="3061.13" y1="887.64" x2="3061.13" y2="858.78" style="stroke:#D0D0D0;stroke-width:4.32"/>
	<line x1="3061.13" y1="833.64" x2="3061.13" y2="804.78" style="stroke:#D0D0D0;stroke-width:4.32"/>
	<line x1="3061.13" y1="779.64" x2="3061.13" y2="750.78" style="stroke:#D0D0D0;stroke-width:4.32"/>
	<line x1="3061.13" y1="725.64" x2="3061.13" y2="696.78" style="stroke:#D0D0D0;stroke-width:4.32"/>
	<line x1="3061.13" y1="671.64" x2="3061.13" y2="642.78" style="stroke:#D0D0D0;stroke-width:4.32"/>
	<line x1="3061.13" y1="617.63" x2="3061.13" y2="588.78" style="stroke:#D0D0D0;stroke-width:4.32"/>
	<line x1="3061.13" y1="563.63" x2="3061.13" y2="534.78" style="stroke:#D0D0D0;stroke-width:4.32"/>
	<line x1="3061.13" y1="509.63" x2="3061.13" y2="480.78" style="stroke:#D0D0D0;stroke-width:4.32"/>
	<line x1="3061.13" y1="455.63" x2="3061.13" y2="426.78" style="stroke:#D0D0D0;stroke-width:4.32"/>
	<line x1="3061.13" y1="401.63" x2="3061.13" y2="372.77" style="stroke:#D0D0D0;stroke-width:4.32"/>
	<line x1="3061.13" y1="347.63" x2="3061.13" y2="318.77" style="stroke:#D0D0D0;stroke-width:4.32"/>
	<line x1="3061.13" y1="293.63" x2="3061.13" y2="264.77" style="stroke:#D0D0D0;stroke-width:4.32"/>
	<line x1="3061.13" y1="239.63" x2="3061.13" y2="210.77" style="stroke:#D0D0D0;stroke-width:4.32"/>
	<line x1="3061.13" y1="185.63" x2="3061.13" y2="156.77" style="stroke:#D0D0D0;stroke-width:4.32"/>
	<line x1="3061.13" y1="131.63" x2="3061.13" y2="126.06" style="stroke:#D0D0D0;stroke-width:4.32"/>
	<line x1="3765.15" y1="2723.67" x2="3765.15" y2="2694.81" style="stroke:#D0D0D0;stroke-width:4.32"/>
	<line x1="3765.15" y1="2669.67" x2="3765.15" y2="2640.81" style="stroke:#D0D0D0;stroke-width:4.32"/>
	<line x1="3765.15" y1="2615.67" x2="3765.15" y2="2586.81" style="stroke:#D0D0D0;stroke-width:4.32"/>
	<line x1="3765.15" y1="2561.67" x2="3765.15" y2="2532.81" style="stroke:#D0D0D0;stroke-width:4.32"/>
	<line x1="3765.15" y1="2507.66" x2="3765.15" y2="2478.81" style="stroke:#D0D0D0;stroke-width:4.32"/>
	<line x1="3765.15" y1="2453.66" x2="3765.15" y2="2424.81" style="stroke:#D0D0D0;stroke-width:4.32"/>
	<line x1="3765.15" y1="2399.66" x2="3765.15" y2="2370.81" style="stroke:#D0D0D0;stroke-width:4.32"/>
	<line x1="3765.15" y1="2345.66" x2="3765.15" y2="2316.80" style="stroke:#D0D0D0;stroke-width:4.32"/>
	<line x1="3765.15" y1="2291.66" x2="3765.15" y2="2262.80" style="stroke:#D0D0D0;stroke-width:4.32"/>
	<line x1="3765.15" y1="2237.66" x2="3765.15" y2="2208.80" style="stroke:#D0D0D0;stroke-width:4.32"/>
	<line x1="3765.15" y1="2183.66" x2="3765.15" y2="2154.80" style="stroke:#D0D0D0;stroke-width:4.32"/>
	<line x1="3765.15" y1="2129.66" x2="3765.15" y2="2100.80" style="stroke:#D0D0D0;stroke-width:4.32"/>
	<line x1="3765.15" y1="2075.66" x2="3765.15" y2="2046.80" style="stroke:#D0D0D0;stroke-width:4.32"/>
	<line x1="3765.15" y1="2021.66" x2="3765.15" y2="1992.80" style="stroke:#D0D0D0;stroke-width:4.32"/>
	<line x1="3765.15" y1="1967.66" x2="3765.15" y2="1938.80" style="stroke:#D0D0D0;stroke-width:4.32"/>
	<line x1="3765.15" y1="1913.65" x2="3765.15" y2="1884.80" style="stroke:#D0D0D0;stroke-width:4.32"/>
	<line x1="3765.15" y1="1859.65" x2="3765.15" y2="1830.80" style="stroke:#D0D0D0;stroke-width:4.32"/>
	<line x1="3765.15" y1="1805.65" x2="3765.15" y2="1776.80" style="stroke:#D0D0D0;stroke-width:4.32"/>
	<line x1="3765.15" y1="1751.65" x2="3765.15" y2="1722.80" style="stroke:#D0D0D0;stroke-width:4.32"/>
	<line x1="3765.15" y1="1697.65" x2="3765.15" y2="1668.79" style="stroke:#D0D0D0;stroke-width:4.32"/>
	<line x1="3765.15" y1="1643.65" x2="3765.15" y2="1614.79" style="stroke:#D0D0D0;stroke-width:4.32"/>
	<line x1="3765.15" y1="1589.65" x2="3765.15" y2="1560.79" style="stroke:#D0D0D0;stroke-width:4.32"/>
	<line x1="3765.15" y1="1535.65" x2="3765.15" y2="1506.79" style="stroke:#D0D0D0;stroke-width:4.32"/>
	<line x1="3765.15" y1="1481.65" x2="3765.15" y2="1452.79" style="stroke:#D0D0D0;stroke-width:4.32"/>
	<line x1="3765.15" y1="1427.65" x2="3765.15" y2="1398.79" style="stroke:#D0D0D0;stroke-width:4.32"/>
	<line x1="3765.15" y1="1373.65" x2="3765.15" y2="1344.79" style="stroke:#D0D0D0;stroke-width:4.32"/>
	<line x1="3765.15" y1="1319.65" x2="3765.15" y2="1290.79" style="stroke:#D0D0D0;stroke-width:4.32"/>
	<line x1="3765.15" y1="1265.64" x2="3765.15" y2="1236.79" style="stroke:#D0D0D0;stroke-width:4.32"/>
	<line x1="3765.15" y1="1211.64" x2="3765.15" y2="1182.79" style="stroke:#D0D0D0;stroke-width:4.32"/>
	<line x1="3765.15" y1="1157.64" x2="3765.15" y2="1128.79" style="stroke:#D0D0D0;stroke-width:4.32"/>
	<line x1="3765.15" y1="1103.64" x2="3765.15" y2="1074.79" style="stroke:#D0D0D0;stroke-width:4.32"/>
	<line x1="3765.15" y1="1049.64" x2="3765.15" y2="1020.78" style="stroke:#D0D0D0;stroke-width:4.32"/>
	<line x1="3765.15" y1="995.64" x2="3765.15" y2="966.78" style="stroke:#D0D0D0;stroke-width:4.32"/>
	<line x1="3765.15" y1="941.64" x2="3765.15" y2="912.78" style="stroke:#D0D0D0;stroke-width:4.32"/>
	<line x1="3765.15" y1="887.64" x2="3765.15" y2="858.78" style="stroke:#D0D0D0;stroke-width:4.32"/>
	<line x1="3765.15" y1="833.64" x2="3765.15" y2="804.78" style="stroke:#D0D0D0;stroke-width:4.32"/>
	<line x1="3765.15" y1="779.64" x2="3765.15" y2="750.78" style="stroke:#D0D0D0;stroke-width:4.32"/>
	<line x1="3765.15" y1="725.64" x2="3765.15" y2="696.78" style="stroke:#D0D0D0;stroke-width:4.32"/>
	<line x1="3765.15" y1="671.64" x2="3765.15" y2="642.78" style="stroke:#D0D0D0;stroke-width:4.32"/>
	<line x1="3765.15" y1="617.63" x2="3765.15" y2="588.78" style="stroke:#D0D0D0;stroke-width:4.32"/>
	<line x1="3765.15" y1="563.63" x2="3765.15" y2="534.78" style="stroke:#D0D0D0;stroke-width:4.32"/>
	<line x1="3765.15" y1="509.63" x2="3765.15" y2="480.78" style="stroke:#D0D0D0;stroke-width:4.32"/>
	<line x1="3765.15" y1="455.63" x2="3765.15" y2="426.78" style="stroke:#D0D0D0;stroke-width:4.32"/>
	<line x1="3765.15" y1="401.63" x2="3765.15" y2="372.77" style="stroke:#D0D0D0;stroke-width:4.32"/>
	<line x1="3765.15" y1="347.63" x2="3765.15" y2="318.77" style="stroke:#D0D0D0;stroke-width:4.32"/>
	<line x1="3765.15" y1="293.63" x2="3765.15" y2="264.77" style="stroke:#D0D0D0;stroke-width:4.32"/>
	<line x1="3765.15" y1="239.63" x2="3765.15" y2="210.77" style="stroke:#D0D0D0;stroke-width:4.32"/>
	<line x1="3765.15" y1="185.63" x2="3765.15" y2="156.77" style="stroke:#D0D0D0;stroke-width:4.32"/>
	<line x1="3765.15" y1="131.63" x2="3765.15" y2="126.06" style="stroke:#D0D0D0;stroke-width:4.32"/>
	<line x1="4469.18" y1="2723.67" x2="4469.18" y2="2694.81" style="stroke:#D0D0D0;stroke-width:4.32"/>
	<line x1="4469.18" y1="2669.67" x2="4469.18" y2="2640.81" style="stroke:#D0D0D0;stroke-width:4.32"/>
	<line x1="4469.18" y1="2615.67" x2="4469.18" y2="2586.81" style="stroke:#D0D0D0;stroke-width:4.32"/>
	<line x1="4469.18" y1="2561.67" x2="4469.18" y2="2532.81" style="stroke:#D0D0D0;stroke-width:4.32"/>
	<line x1="4469.18" y1="2507.66" x2="4469.18" y2="2478.81" style="stroke:#D0D0D0;stroke-width:4.32"/>
	<line x1="4469.18" y1="2453.66" x2="4469.18" y2="2424.81" style="stroke:#D0D0D0;stroke-width:4.32"/>
	<line x1="4469.18" y1="2399.66" x2="4469.18" y2="2370.81" style="stroke:#D0D0D0;stroke-width:4.32"/>
	<line x1="4469.18" y1="2345.66" x2="4469.18" y2="2316.80" style="stroke:#D0D0D0;stroke-width:4.32"/>
	<line x1="4469.18" y1="2291.66" x2="4469.18" y2="2262.80" style="stroke:#D0D0D0;stroke-width:4.32"/>
	<line x1="4469.18" y1="2237.66" x2="4469.18" y2="2208.80" style="stroke:#D0D0D0;stroke-width:4.32"/>
	<line x1="4469.18" y1="2183.66" x2="4469.18" y2="2154.80" style="stroke:#D0D0D0;stroke-width:4.32"/>
	<line x1="4469.18" y1="2129.66" x2="4469.18" y2="2100.80" style="stroke:#D0D0D0;stroke-width:4.32"/>
	<line x1="4469.18" y1="2075.66" x2="4469.18" y2="2046.80" style="stroke:#D0D0D0;stroke-width:4.32"/>
	<line x1="4469.18" y1="2021.66" x2="4469.18" y2="1992.80" style="stroke:#D0D0D0;stroke-width:4.32"/>
	<line x1="4469.18" y1="1967.66" x2="4469.18" y2="1938.80" style="stroke:#D0D0D0;stroke-width:4.32"/>
	<line x1="4469.18" y1="1913.65" x2="4469.18" y2="1884.80" style="stroke:#D0D0D0;stroke-width:4.32"/>
	<line x1="4469.18" y1="1859.65" x2="4469.18" y2="1830.80" style="stroke:#D0D0D0;stroke-width:4.32"/>
	<line x1="4469.18" y1="1805.65" x2="4469.18" y2="1776.80" style="stroke:#D0D0D0;stroke-width:4.32"/>
	<line x1="4469.18" y1="1751.65" x2="4469.18" y2="1722.80" style="stroke:#D0D0D0;stroke-width:4.32"/>
	<line x1="4469.18" y1="1697.65" x2="4469.18" y2="1668.79" style="stroke:#D0D0D0;stroke-width:4.32"/>
	<line x1="4469.18" y1="1643.65" x2="4469.18" y2="1614.79" style="stroke:#D0D0D0;stroke-width:4.32"/>
	<line x1="4469.18" y1="1589.65" x2="4469.18" y2="1560.79" style="stroke:#D0D0D0;stroke-width:4.32"/>
	<line x1="4469.18" y1="1535.65" x2="4469.18" y2="1506.79" style="stroke:#D0D0D0;stroke-width:4.32"/>
	<line x1="4469.18" y1="1481.65" x2="4469.18" y2="1452.79" style="stroke:#D0D0D0;stroke-width:4.32"/>
	<line x1="4469.18" y1="1427.65" x2="4469.18" y2="1398.79" style="stroke:#D0D0D0;stroke-width:4.32"/>
	<line x1="4469.18" y1="1373.65" x2="4469.18" y2="1344.79" style="stroke:#D0D0D0;stroke-width:4.32"/>
	<line x1="4469.18" y1="1319.65" x2="4469.18" y2="1290.79" style="stroke:#D0D0D0;stroke-width:4.32"/>
	<line x1="4469.18" y1="1265.64" x2="4469.18" y2="1236.79" style="stroke:#D0D0D0;stroke-width:4.32"/>
	<line x1="4469.18" y1="1211.64" x2="4469.18" y2="1182.79" style="stroke:#D0D0D0;stroke-width:4.32"/>
	<line x1="4469.18" y1="1157.64" x2="4469.18" y2="1128.79" style="stroke:#D0D0D0;stroke-width:4.32"/>
	<line x1="4469.18" y1="1103.64" x2="4469.18" y2="1074.79" style="stroke:#D0D0D0;stroke-width:4.32"/>
	<line x1="4469.18" y1="1049.64" x2="4469.18" y2="1020.78" style="stroke:#D0D0D0;stroke-width:4.32"/>
	<line x1="4469.18" y1="995.64" x2="4469.18" y2="966.78" style="stroke:#D0D0D0;stroke-width:4.32"/>
	<line x1="4469.18" y1="941.64" x2="4469.18" y2="912.78" style="stroke:#D0D0D0;stroke-width:4.32"/>
	<line x1="4469.18" y1="887.64" x2="4469.18" y2="858.78" style="stroke:#D0D0D0;stroke-width:4.32"/>
	<line x1="4469.18" y1="833.64" x2="4469.18" y2="804.78" style="stroke:#D0D0D0;stroke-width:4.32"/>
	<line x1="4469.18" y1="779.64" x2="4469.18" y2="750.78" style="stroke:#D0D0D0;stroke-width:4.32"/>
	<line x1="4469.18" y1="725.64" x2="4469.18" y2="696.78" style="stroke:#D0D0D0;stroke-width:4.32"/>
	<line x1="4469.18" y1="671.64" x2="4469.18" y2="642.78" style="stroke:#D0D0D0;stroke-width:4.32"/>
	<line x1="4469.18" y1="617.63" x2="4469.18" y2="588.78" style="stroke:#D0D0D0;stroke-width:4.32"/>
	<line x1="4469.18" y1="563.63" x2="4469.18" y2="534.78" style="stroke:#D0D0D0;stroke-width:4.32"/>
	<line x1="4469.18" y1="509.63" x2="4469.18" y2="480.78" style="stroke:#D0D0D0;stroke-width:4.32"/>
	<line x1="4469.18" y1="455.63" x2="4469.18" y2="426.78" style="stroke:#D0D0D0;stroke-width:4.32"/>
	<line x1="4469.18" y1="401.63" x2="4469.18" y2="372.77" style="stroke:#D0D0D0;stroke-width:4.32"/>
	<line x1="4469.18" y1="347.63" x2="4469.18" y2="318.77" style="stroke:#D0D0D0;stroke-width:4.32"/>
	<line x1="4469.18" y1="293.63" x2="4469.18" y2="264.77" style="stroke:#D0D0D0;stroke-width:4.32"/>
	<line x1="4469.18" y1="239.63" x2="4469.18" y2="210.77" style="stroke:#D0D0D0;stroke-width:4.32"/>
	<line x1="4469.18" y1="185.63" x2="4469.18" y2="156.77" style="stroke:#D0D0D0;stroke-width:4.32"/>
	<line x1="4469.18" y1="131.63" x2="4469.18" y2="126.06" style="stroke:#D0D0D0;stroke-width:4.32"/>
	<line x1="5173.20" y1="2723.67" x2="5173.20" y2="2694.81" style="stroke:#D0D0D0;stroke-width:4.32"/>
	<line x1="5173.20" y1="2669.67" x2="5173.20" y2="2640.81" style="stroke:#D0D0D0;stroke-width:4.32"/>
	<line x1="5173.20" y1="2615.67" x2="5173.20" y2="2586.81" style="stroke:#D0D0D0;stroke-width:4.32"/>
	<line x1="5173.20" y1="2561.67" x2="5173.20" y2="2532.81" style="stroke:#D0D0D0;stroke-width:4.32"/>
	<line x1="5173.20" y1="2507.66" x2="5173.20" y2="2478.81" style="stroke:#D0D0D0;stroke-width:4.32"/>
	<line x1="5173.20" y1="2453.66" x2="5173.20" y2="2424.81" style="stroke:#D0D0D0;stroke-width:4.32"/>
	<line x1="5173.20" y1="2399.66" x2="5173.20" y2="2370.81" style="stroke:#D0D0D0;stroke-width:4.32"/>
	<line x1="5173.20" y1="2345.66" x2="5173.20" y2="2316.80" style="stroke:#D0D0D0;stroke-width:4.32"/>
	<line x1="5173.20" y1="2291.66" x2="5173.20" y2="2262.80" style="stroke:#D0D0D0;stroke-width:4.32"/>
	<line x1="5173.20" y1="2237.66" x2="5173.20" y2="2208.80" style="stroke:#D0D0D0;stroke-width:4.32"/>
	<line x1="5173.20" y1="2183.66" x2="5173.20" y2="2154.80" style="stroke:#D0D0D0;stroke-width:4.32"/>
	<line x1="5173.20" y1="2129.66" x2="5173.20" y2="2100.80" style="stroke:#D0D0D0;stroke-width:4.32"/>
	<line x1="5173.20" y1="2075.66" x2="5173.20" y2="2046.80" style="stroke:#D0D0D0;stroke-width:4.32"/>
	<line x1="5173.20" y1="2021.66" x2="5173.20" y2="1992.80" style="stroke:#D0D0D0;stroke-width:4.32"/>
	<line x1="5173.20" y1="1967.66" x2="5173.20" y2="1938.80" style="stroke:#D0D0D0;stroke-width:4.32"/>
	<line x1="5173.20" y1="1913.65" x2="5173.20" y2="1884.80" style="stroke:#D0D0D0;stroke-width:4.32"/>
	<line x1="5173.20" y1="1859.65" x2="5173.20" y2="1830.80" style="stroke:#D0D0D0;stroke-width:4.32"/>
	<line x1="5173.20" y1="1805.65" x2="5173.20" y2="1776.80" style="stroke:#D0D0D0;stroke-width:4.32"/>
	<line x1="5173.20" y1="1751.65" x2="5173.20" y2="1722.80" style="stroke:#D0D0D0;stroke-width:4.32"/>
	<line x1="5173.20" y1="1697.65" x2="5173.20" y2="1668.79" style="stroke:#D0D0D0;stroke-width:4.32"/>
	<line x1="5173.20" y1="1643.65" x2="5173.20" y2="1614.79" style="stroke:#D0D0D0;stroke-width:4.32"/>
	<line x1="5173.20" y1="1589.65" x2="5173.20" y2="1560.79" style="stroke:#D0D0D0;stroke-width:4.32"/>
	<line x1="5173.20" y1="1535.65" x2="5173.20" y2="1506.79" style="stroke:#D0D0D0;stroke-width:4.32"/>
	<line x1="5173.20" y1="1481.65" x2="5173.20" y2="1452.79" style="stroke:#D0D0D0;stroke-width:4.32"/>
	<line x1="5173.20" y1="1427.65" x2="5173.20" y2="1398.79" style="stroke:#D0D0D0;stroke-width:4.32"/>
	<line x1="5173.20" y1="1373.65" x2="5173.20" y2="1344.79" style="stroke:#D0D0D0;stroke-width:4.32"/>
	<line x1="5173.20" y1="1319.65" x2="5173.20" y2="1290.79" style="stroke:#D0D0D0;stroke-width:4.32"/>
	<line x1="5173.20" y1="1265.64" x2="5173.20" y2="1236.79" style="stroke:#D0D0D0;stroke-width:4.32"/>
	<line x1="5173.20" y1="1211.64" x2="5173.20" y2="1182.79" style="stroke:#D0D0D0;stroke-width:4.32"/>
	<line x1="5173.20" y1="1157.64" x2="5173.20" y2="1128.79" style="stroke:#D0D0D0;stroke-width:4.32"/>
	<line x1="5173.20" y1="1103.64" x2="5173.20" y2="1074.79" style="stroke:#D0D0D0;stroke-width:4.32"/>
	<line x1="5173.20" y1="1049.64" x2="5173.20" y2="1020.78" style="stroke:#D0D0D0;stroke-width:4.32"/>
	<line x1="5173.20" y1="995.64" x2="5173.20" y2="966.78" style="stroke:#D0D0D0;stroke-width:4.32"/>
	<line x1="5173.20" y1="941.64" x2="5173.20" y2="912.78" style="stroke:#D0D0D0;stroke-width:4.32"/>
	<line x1="5173.20" y1="887.64" x2="5173.20" y2="858.78" style="stroke:#D0D0D0;stroke-width:4.32"/>
	<line x1="5173.20" y1="833.64" x2="5173.20" y2="804.78" style="stroke:#D0D0D0;stroke-width:4.32"/>
	<line x1="5173.20" y1="779.64" x2="5173.20" y2="750.78" style="stroke:#D0D0D0;stroke-width:4.32"/>
	<line x1="5173.20" y1="725.64" x2="5173.20" y2="696.78" style="stroke:#D0D0D0;stroke-width:4.32"/>
	<line x1="5173.20" y1="671.64" x2="5173.20" y2="642.78" style="stroke:#D0D0D0;stroke-width:4.32"/>
	<line x1="5173.20" y1="617.63" x2="5173.20" y2="588.78" style="stroke:#D0D0D0;stroke-width:4.32"/>
	<line x1="5173.20" y1="563.63" x2="5173.20" y2="534.78" style="stroke:#D0D0D0;stroke-width:4.32"/>
	<line x1="5173.20" y1="509.63" x2="5173.20" y2="480.78" style="stroke:#D0D0D0;stroke-width:4.32"/>
	<line x1="5173.20" y1="455.63" x2="5173.20" y2="426.78" style="stroke:#D0D0D0;stroke-width:4.32"/>
	<line x1="5173.20" y1="401.63" x2="5173.20" y2="372.77" style="stroke:#D0D0D0;stroke-width:4.32"/>
	<line x1="5173.20" y1="347.63" x2="5173.20" y2="318.77" style="stroke:#D0D0D0;stroke-width:4.32"/>
	<line x1="5173.20" y1="293.63" x2="5173.20" y2="264.77" style="stroke:#D0D0D0;stroke-width:4.32"/>
	<line x1="5173.20" y1="239.63" x2="5173.20" y2="210.77" style="stroke:#D0D0D0;stroke-width:4.32"/>
	<line x1="5173.20" y1="185.63" x2="5173.20" y2="156.77" style="stroke:#D0D0D0;stroke-width:4.32"/>
	<line x1="5173.20" y1="131.63" x2="5173.20" y2="126.06" style="stroke:#D0D0D0;stroke-width:4.32"/>
	<rect x="1653.08" y="2555.08" width="1636.37" height="56.36" style="fill:#FF7F0E"/>
	<rect x="1655.95" y="2557.96" width="1630.61" height="50.60" style="fill:none;stroke:#FF7F0E;stroke-width:5.76"/>
	<rect x="1653.08" y="2498.55" width="831.26" height="56.53" style="fill:#1F77B4"/>
	<rect x="1655.95" y="2501.43" width="825.50" height="50.77" style="fill:none;stroke:#1F77B4;stroke-width:5.76"/>
	<rect x="1653.08" y="2404.39" width="2060.61" height="56.36" style="fill:#FF7F0E"/>
	<rect x="1655.95" y="2407.27" width="2054.85" height="50.60" style="fill:none;stroke:#FF7F0E;stroke-width:5.76"/>
	<rect x="1653.08" y="2347.86" width="987.52" height="56.53" style="fill:#1F77B4"/>
	<rect x="1655.95" y="2350.74" width="981.77" height="50.77" style="fill:none;stroke:#1F77B4;stroke-width:5.76"/>
	<rect x="1653.08" y="2253.69" width="1814.23" height="56.36" style="fill:#FF7F0E"/>
	<rect x="1655.95" y="2256.57" width="1808.47" height="50.60" style="fill:none;stroke:#FF7F0E;stroke-width:5.76"/>
	<rect x="1653.08" y="2197.16" width="1033.09" height="56.53" style="fill:#1F77B4"/>
	<rect x="1655.95" y="2200.04" width="1027.33" height="50.77" style="fill:none;stroke:#1F77B4;stroke-width:5.76"/>
	<rect x="1653.08" y="2103.00" width="3137.06" height="56.36" style="fill:#FF7F0E"/>
	<rect x="1655.95" y="2105.88" width="3131.30" height="50.60" style="fill:none;stroke:#FF7F0E;stroke-width:5.76"/>
	<rect x="1653.08" y="2046.46" width="1189.52" height="56.53" style="fill:#1F77B4"/>
	<rect x="1655.95" y="2049.34" width="1183.76" height="50.77" style="fill:none;stroke:#1F77B4;stroke-width:5.76"/>
	<rect x="1653.08" y="1952.30" width="2410.26" height="56.36" style="fill:#FF7F0E"/>
	<rect x="1655.95" y="1955.18" width="2404.50" height="50.60" style="fill:none;stroke:#FF7F0E;stroke-width:5.76"/>
	<rect x="1653.08" y="1895.77" width="1236.77" height="56.53" style="fill:#1F77B4"/>
	<rect x="1655.95" y="1898.65" width="1231.01" height="50.77" style="fill:none;stroke:#1F77B4;stroke-width:5.76"/>
	<rect x="1653.08" y="1801.60" width="3021.98" height="56.36" style="fill:#FF7F0E"/>
	<rect x="1655.95" y="1804.48" width="3016.22" height="50.60" style="fill:none;stroke:#FF7F0E;stroke-width:5.76"/>
	<rect x="1653.08" y="1745.07" width="1269.68" height="56.53" style="fill:#1F77B4"/>
	<rect x="1655.95" y="1747.95" width="1263.92" height="50.77" style="fill:none;stroke:#1F77B4;stroke-width:5.76"/>
	<rect x="1653.08" y="1650.91" width="3049.48" height="56.36" style="fill:#FF7F0E"/>
	<rect x="1655.95" y="1653.79" width="3043.72" height="50.60" style="fill:none;stroke:#FF7F0E;stroke-width:5.76"/>
	<rect x="1653.08" y="1594.37" width="1293.30" height="56.53" style="fill:#1F77B4"/>
	<rect x="1655.95" y="1597.25" width="1287.54" height="50.77" style="fill:none;stroke:#1F77B4;stroke-width:5.76"/>
	<rect x="1653.08" y="1500.21" width="3277.63" height="56.36" style="fill:#FF7F0E"/>
	<rect x="1655.95" y="1503.09" width="3271.87" height="50.60" style="fill:none;stroke:#FF7F0E;stroke-width:5.76"/>
	<rect x="1653.08" y="1443.68" width="1340.72" height="56.53" style="fill:#1F77B4"/>
	<rect x="1655.95" y="1446.56" width="1334.96" height="50.77" style="fill:none;stroke:#1F77B4;stroke-width:5.76"/>
	<rect x="1653.08" y="1349.51" width="2371.27" height="56.36" style="fill:#FF7F0E"/>
	<rect x="1655.95" y="1352.39" width="2365.52" height="50.60" style="fill:none;stroke:#FF7F0E;stroke-width:5.76"/>
	<rect x="1653.08" y="1292.98" width="1440.96" height="56.53" style="fill:#1F77B4"/>
	<rect x="1655.95" y="1295.86" width="1435.20" height="50.77" style="fill:none;stroke:#1F77B4;stroke-width:5.76"/>
	<rect x="1653.08" y="1198.82" width="2165.23" height="56.36" style="fill:#FF7F0E"/>
	<rect x="1655.95" y="1201.70" width="2159.47" height="50.60" style="fill:none;stroke:#FF7F0E;stroke-width:5.76"/>
	<rect x="1653.08" y="1142.29" width="1442.98" height="56.53" style="fill:#1F77B4"/>
	<rect x="1655.95" y="1145.17" width="1437.22" height="50.77" style="fill:none;stroke:#1F77B4;stroke-width:5.76"/>
	<rect x="1653.08" y="1048.12" width="2759.57" height="56.36" style="fill:#FF7F0E"/>
	<rect x="1655.95" y="1051.00" width="2753.81" height="50.60" style="fill:none;stroke:#FF7F0E;stroke-width:5.76"/>
	<rect x="1653.08" y="991.59" width="1464.41" height="56.53" style="fill:#1F77B4"/>
	<rect x="1655.95" y="994.47" width="1458.65" height="50.77" style="fill:none;stroke:#1F77B4;stroke-width:5.76"/>
	<rect x="1653.08" y="897.43" width="3291.81" height="56.36" style="fill:#FF7F0E"/>
	<rect x="1655.95" y="900.31" width="3286.05" height="50.60" style="fill:none;stroke:#FF7F0E;stroke-width:5.76"/>
	<rect x="1653.08" y="840.89" width="1600.09" height="56.53" style="fill:#1F77B4"/>
	<rect x="1655.95" y="843.77" width="1594.33" height="50.77" style="fill:none;stroke:#1F77B4;stroke-width:5.76"/>
	<rect x="1653.08" y="746.56" width="2747.25" height="56.53" style="fill:#FF7F0E"/>
	<rect x="1655.95" y="749.44" width="2741.49" height="50.77" style="fill:none;stroke:#FF7F0E;stroke-width:5.76"/>
	<rect x="1653.08" y="690.20" width="1695.60" height="56.36" style="fill:#1F77B4"/>
	<rect x="1655.95" y="693.08" width="1689.84" height="50.60" style="fill:none;stroke:#1F77B4;stroke-width:5.76"/>
	<rect x="1653.08" y="595.87" width="2058.24" height="56.53" style="fill:#FF7F0E"/>
	<rect x="1655.95" y="598.75" width="2052.48" height="50.77" style="fill:none;stroke:#FF7F0E;stroke-width:5.76"/>
	<rect x="1653.08" y="539.50" width="1734.41" height="56.36" style="fill:#1F77B4"/>
	<rect x="1655.95" y="542.38" width="1728.65" height="50.60" style="fill:none;stroke:#1F77B4;stroke-width:5.76"/>
	<rect x="1653.08" y="445.17" width="2190.71" height="56.53" style="fill:#FF7F0E"/>
	<rect x="1655.95" y="448.05" width="2184.95" height="50.77" style="fill:none;stroke:#FF7F0E;stroke-width:5.76"/>
	<rect x="1653.08" y="388.81" width="1739.14" height="56.36" style="fill:#1F77B4"/>
	<rect x="1655.95" y="391.69" width="1733.38" height="50.60" style="fill:none;stroke:#1F77B4;stroke-width:5.76"/>
	<rect x="1653.08" y="294.47" width="3494.81" height="56.53" style="fill:#FF7F0E"/>
	<rect x="1655.95" y="297.35" width="3489.05" height="50.77" style="fill:none;stroke:#FF7F0E;stroke-width:5.76"/>
	<rect x="1653.08" y="238.11" width="1944.51" height="56.36" style="fill:#1F77B4"/>
	<rect x="1655.95" y="240.99" width="1938.75" height="50.60" style="fill:none;stroke:#1F77B4;stroke-width:5.76"/>
	<line x1="1653.08" y1="2723.67" x2="5273.94" y2="2723.67" style="stroke:#000000;stroke-width:5.76"/>
	<line x1="1653.08" y1="2723.67" x2="1653.08" y2="2763.66" style="stroke:#000000;stroke-width:5.76"/>
	<text x="1653.08" y="2853.54" style="font-family:'Helvetica';font-size:100.07px;fill:#000000" text-anchor="middle">$0</text>
	<line x1="2357.10" y1="2723.67" x2="2357.10" y2="2763.66" style="stroke:#000000;stroke-width:5.76"/>
	<text x="2357.10" y="2853.54" style="font-family:'Helvetica';font-size:100.07px;fill:#000000" text-anchor="middle">$20,000</text>
	<line x1="3061.13" y1="2723.67" x2="3061.13" y2="2763.66" style="stroke:#000000;stroke-width:5.76"/>
	<text x="3061.13" y="2853.54" style="font-family:'Helvetica';font-size:100.07px;fill:#000000" text-anchor="middle">$40,000</text>
	<line x1="3765.15" y1="2723.67" x2="3765.15" y2="2763.66" style="stroke:#000000;stroke-width:5.76"/>
	<text x="3765.15" y="2853.54" style="font-family:'Helvetica';font-size:100.07px;fill:#000000" text-anchor="middle">$60,000</text>
	<line x1="4469.18" y1="2723.67" x2="4469.18" y2="2763.66" style="stroke:#000000;stroke-width:5.76"/>
	<text x="4469.18" y="2853.54" style="font-family:'Helvetica';font-size:100.07px;fill:#000000" text-anchor="middle">$80,000</text>
	<line x1="5173.20" y1="2723.67" x2="5173.20" y2="2763.66" style="stroke:#000000;stroke-width:5.76"/>
	<text x="5173.20" y="2853.54" style="font-family:'Helvetica';font-size:100.07px;fill:#000000" text-anchor="middle">$100,000</text>
	<text x="3463.43" y="3028.08" style="font-family:'Helvetica';font-size:110.03px;fill:#000000" text-anchor="middle">Average Median Earnings of Occupation</text>
	<line x1="1653.08" y1="2723.67" x2="1653.08" y2="126.06" style="stroke:#000000;stroke-width:5.76"/>
	<text x="1613.08" y="2590.15" style="font-family:'Helvetica';font-size:100.07px;fill:#000000" text-anchor="end">Fam. &amp; Consumer Sci.</text>
	<text x="1613.08" y="2439.45" style="font-family:'Helvetica';font-size:100.07px;fill:#000000" text-anchor="end">Educ. &amp; Training</text>
	<text x="1613.08" y="2288.76" style="font-family:'Helvetica';font-size:100.07px;fill:#000000" text-anchor="end">Human Services</text>
	<text x="1613.08" y="2138.06" style="font-family:'Helvetica';font-size:100.07px;fill:#000000" text-anchor="end">Marketing</text>
	<text x="1613.08" y="1987.37" style="font-family:'Helvetica';font-size:100.07px;fill:#000000" text-anchor="end">Agric., Food &amp; Nat'l Resc's</text>
	<text x="1613.08" y="1836.67" style="font-family:'Helvetica';font-size:100.07px;fill:#000000" text-anchor="end">Health Sci.</text>
	<text x="1613.08" y="1685.97" style="font-family:'Helvetica';font-size:100.07px;fill:#000000" text-anchor="end">Trans., Dist. &amp; Logist.</text>
	<text x="1613.08" y="1535.28" style="font-family:'Helvetica';font-size:100.07px;fill:#000000" text-anchor="end">Bus. Mgmt. &amp; Admin.</text>
	<text x="1613.08" y="1384.58" style="font-family:'Helvetica';font-size:100.07px;fill:#000000" text-anchor="end">Industrial Tech.</text>
	<text x="1613.08" y="1233.89" style="font-family:'Helvetica';font-size:100.07px;fill:#000000" text-anchor="end">Manufacturing</text>
	<text x="1613.08" y="1083.19" style="font-family:'Helvetica';font-size:100.07px;fill:#000000" text-anchor="end">Finance</text>
	<text x="1613.08" y="932.49" style="font-family:'Helvetica';font-size:100.07px;fill:#000000" text-anchor="end">Law, Pub. Sfty., Correc. &amp; Sec.</text>
	<text x="1613.08" y="781.63" style="font-family:'Helvetica';font-size:100.07px;fill:#000000" text-anchor="end">Architecture &amp; Constr.</text>
	<text x="1613.08" y="630.93" style="font-family:'Helvetica';font-size:100.07px;fill:#000000" text-anchor="end">Arts, A/V Tech. &amp; Comms.</text>
	<text x="1613.08" y="480.24" style="font-family:'Helvetica';font-size:100.07px;fill:#000000" text-anchor="end">Gov't &amp; Pub. Admin.</text>
	<text x="1613.08" y="329.54" style="font-family:'Helvetica';font-size:100.07px;fill:#000000" text-anchor="end">Information Tech.</text>
	<rect x="2159.16" y="3115.68" width="2608.71" height="323.84" style="fill:#FFFFFF"/>
	<rect x="2162.04" y="3118.56" width="2602.95" height="318.08" style="fill:none;stroke:#FFFFFF;stroke-opacity:0.00;stroke-width:5.76"/>
	<rect x="2308.84" y="3299.96" width="172.80" height="99.90" style="fill:#1F77B4"/>
	<rect x="2311.72" y="3302.84" width="167.04" height="94.14" style="fill:none;stroke:#1F77B4;stroke-width:5.76"/>
	<rect x="3639.09" y="3299.96" width="172.80" height="99.90" style="fill:#FF7F0E"/>
	<rect x="3641.97" y="3302.84" width="167.04" height="94.14" style="fill:none;stroke:#FF7F0E;stroke-width:5.76"/>
	<text x="2517.58" y="3388.46" style="font-family:'Helvetica';font-size:110.03px;fill:#000000">Less Than College</text>
	<text x="3847.84" y="3388.46" style="font-family:'Helvetica';font-size:110.03px;fill:#000000">College or Higher</text>
	<text x="3463.43" y="3244.59" style="font-family:'Helvetica';font-size:110.03px;fill:#000000" text-anchor="middle">Occupation Entry Requirement</text>
</svg>
