<?xml version="1.0" encoding="UTF-8" standalone="no"?>
<!-- This is a Stata 19.5 generated SVG file (http://www.stata.com) -->

<svg version="1.1" width="5.500in" height="4.000in" viewBox="0 0 3960 2880" xmlns="http://www.w3.org/2000/svg" xmlns:xlink="http://www.w3.org/1999/xlink">
	<desc>Stata Graph - Graph</desc>
	<rect x="0" y="0" width="3960" height="2880" style="fill:#FFFFFF;stroke:none"/>
	<rect x="0.00" y="0.00" width="3959.88" height="2880.00" style="fill:#FFFFFF"/>
	<rect x="2.88" y="2.88" width="3954.12" height="2874.24" style="fill:none;stroke:#FFFFFF;stroke-width:5.76"/>
	<rect x="709.09" y="100.86" width="3149.93" height="2320.76" style="fill:#FFFFFF"/>
	<rect x="711.97" y="103.74" width="3144.17" height="2315.00" style="fill:none;stroke:#FFFFFF;stroke-width:5.76"/>
	<line x1="709.09" y1="2358.25" x2="3859.02" y2="2358.25" style="stroke:#E0E0E0;stroke-width:4.32"/>
	<line x1="709.09" y1="1835.89" x2="3859.02" y2="1835.89" style="stroke:#E0E0E0;stroke-width:4.32"/>
	<line x1="709.09" y1="1313.40" x2="3859.02" y2="1313.40" style="stroke:#E0E0E0;stroke-width:4.32"/>
	<line x1="709.09" y1="791.03" x2="3859.02" y2="791.03" style="stroke:#E0E0E0;stroke-width:4.32"/>
	<line x1="709.09" y1="268.67" x2="3859.02" y2="268.67" style="stroke:#E0E0E0;stroke-width:4.32"/>
	<line x1="709.09" y1="2421.62" x2="709.09" y2="100.86" style="stroke:#E0E0E0;stroke-width:4.32"/>
	<line x1="1465.20" y1="2421.62" x2="1465.20" y2="100.86" style="stroke:#E0E0E0;stroke-width:4.32"/>
	<line x1="2221.19" y1="2421.62" x2="2221.19" y2="100.86" style="stroke:#E0E0E0;stroke-width:4.32"/>
	<line x1="2977.30" y1="2421.62" x2="2977.30" y2="100.86" style="stroke:#E0E0E0;stroke-width:4.32"/>
	<line x1="3733.29" y1="2421.62" x2="3733.29" y2="100.86" style="stroke:#E0E0E0;stroke-width:4.32"/>
	<path d=" M771.95 1124.92 L2283.81 1131.85 L3795.66 1138.78" stroke-linejoin="round" style="fill:none;stroke:#FF7F0E;stroke-width:12.96"/>
	<circle cx="3095.85" cy="1471.68" r="28.51" style="fill:#1F77B4"/>
	<circle cx="3095.85" cy="1471.68" r="22.03" style="fill:none;stroke:#1F77B4;stroke-width:12.96"/>
	<text x="3095.85" y="1569.53" style="font-family:'Helvetica';font-size:79.94px;fill:#606060" text-anchor="middle">Agric., Food &amp; Nat'l Resc's</text>
	<circle cx="946.32" cy="594.88" r="28.51" style="fill:#1F77B4"/>
	<circle cx="946.32" cy="594.88" r="22.03" style="fill:none;stroke:#1F77B4;stroke-width:12.96"/>
	<text x="982.70" y="671.82" style="font-family:'Helvetica';font-size:79.94px;fill:#606060">Architecture &amp; Constr.</text>
	<circle cx="3795.78" cy="802.05" r="28.51" style="fill:#1F77B4"/>
	<circle cx="3795.78" cy="802.05" r="22.03" style="fill:none;stroke:#1F77B4;stroke-width:12.96"/>
	<text x="3753.83" y="830.06" style="font-family:'Helvetica';font-size:79.94px;fill:#606060" text-anchor="end">Arts, A/V Tech. &amp; Comms.</text>
	<circle cx="1037.52" cy="1312.90" r="28.51" style="fill:#1F77B4"/>
	<circle cx="1037.52" cy="1312.90" r="22.03" style="fill:none;stroke:#1F77B4;stroke-width:12.96"/>
	<text x="1058.56" y="1405.19" style="font-family:'Helvetica';font-size:79.94px;fill:#606060">Bus. Mgmt. &amp; Admin.</text>
	<circle cx="1727.55" cy="1554.84" r="28.51" style="fill:#1F77B4"/>
	<circle cx="1727.55" cy="1554.84" r="22.03" style="fill:none;stroke:#1F77B4;stroke-width:12.96"/>
	<text x="1769.50" y="1582.86" style="font-family:'Helvetica';font-size:79.94px;fill:#606060">Educ. &amp; Training</text>
	<circle cx="771.95" cy="1135.57" r="28.51" style="fill:#1F77B4"/>
	<circle cx="771.95" cy="1135.57" r="22.03" style="fill:none;stroke:#1F77B4;stroke-width:12.96"/>
	<text x="813.90" y="1163.58" style="font-family:'Helvetica';font-size:79.94px;fill:#606060">Finance</text>
	<circle cx="1235.64" cy="462.59" r="28.51" style="fill:#1F77B4"/>
	<circle cx="1235.64" cy="462.59" r="22.03" style="fill:none;stroke:#1F77B4;stroke-width:12.96"/>
	<text x="1256.68" y="426.21" style="font-family:'Helvetica';font-size:79.94px;fill:#606060">Gov't &amp; Pub. Admin.</text>
	<circle cx="2758.76" cy="1378.00" r="28.51" style="fill:#1F77B4"/>
	<circle cx="2758.76" cy="1378.00" r="22.03" style="fill:none;stroke:#1F77B4;stroke-width:12.96"/>
	<text x="2800.71" y="1406.01" style="font-family:'Helvetica';font-size:79.94px;fill:#606060">Health Sci.</text>
	<circle cx="1041.85" cy="1981.42" r="28.51" style="fill:#1F77B4"/>
	<circle cx="1041.85" cy="1981.42" r="22.03" style="fill:none;stroke:#1F77B4;stroke-width:12.96"/>
	<text x="1083.80" y="2009.43" style="font-family:'Helvetica';font-size:79.94px;fill:#606060">Hospitality &amp; Tourism</text>
	<circle cx="1267.45" cy="1752.23" r="28.51" style="fill:#1F77B4"/>
	<circle cx="1267.45" cy="1752.23" r="22.03" style="fill:none;stroke:#1F77B4;stroke-width:12.96"/>
	<text x="1309.40" y="1780.24" style="font-family:'Helvetica';font-size:79.94px;fill:#606060">Human Services</text>
	<circle cx="1481.91" cy="521.50" r="28.51" style="fill:#1F77B4"/>
	<circle cx="1481.91" cy="521.50" r="22.03" style="fill:none;stroke:#1F77B4;stroke-width:12.96"/>
	<text x="1523.86" y="549.51" style="font-family:'Helvetica';font-size:79.94px;fill:#606060">Information Tech.</text>
	<circle cx="929.86" cy="499.47" r="28.51" style="fill:#1F77B4"/>
	<circle cx="929.86" cy="499.47" r="22.03" style="fill:none;stroke:#1F77B4;stroke-width:12.96"/>
	<text x="929.86" y="527.48" style="font-family:'Helvetica';font-size:79.94px;fill:#606060" text-anchor="middle">Law, Pub. Sfty., Correc. &amp; Sec.</text>
	<circle cx="1534.50" cy="1015.52" r="28.51" style="fill:#1F77B4"/>
	<circle cx="1534.50" cy="1015.52" r="22.03" style="fill:none;stroke:#1F77B4;stroke-width:12.96"/>
	<text x="1576.45" y="1043.54" style="font-family:'Helvetica';font-size:79.94px;fill:#606060">Manufacturing</text>
	<circle cx="1327.59" cy="1525.39" r="28.51" style="fill:#1F77B4"/>
	<circle cx="1327.59" cy="1525.39" r="22.03" style="fill:none;stroke:#1F77B4;stroke-width:12.96"/>
	<text x="1285.64" y="1553.40" style="font-family:'Helvetica';font-size:79.94px;fill:#606060" text-anchor="end">Marketing</text>
	<circle cx="2252.87" cy="778.66" r="28.51" style="fill:#1F77B4"/>
	<circle cx="2252.87" cy="778.66" r="22.03" style="fill:none;stroke:#1F77B4;stroke-width:12.96"/>
	<text x="2294.82" y="806.67" style="font-family:'Helvetica';font-size:79.94px;fill:#606060">STEM</text>
	<circle cx="1261.14" cy="1275.53" r="28.51" style="fill:#1F77B4"/>
	<circle cx="1261.14" cy="1275.53" r="22.03" style="fill:none;stroke:#1F77B4;stroke-width:12.96"/>
	<text x="1303.09" y="1303.54" style="font-family:'Helvetica';font-size:79.94px;fill:#606060">Trans., Dist. &amp; Logist.</text>
	<line x1="709.09" y1="2421.62" x2="709.09" y2="100.86" style="stroke:#000000;stroke-width:5.76"/>
	<line x1="709.09" y1="2358.25" x2="669.12" y2="2358.25" style="stroke:#000000;stroke-width:5.76"/>
	<text x="649.07" y="2393.28" style="font-family:'Helvetica';font-size:99.99px;fill:#000000" text-anchor="end">$20,000</text>
	<line x1="709.09" y1="1835.89" x2="669.12" y2="1835.89" style="stroke:#000000;stroke-width:5.76"/>
	<text x="649.07" y="1870.92" style="font-family:'Helvetica';font-size:99.99px;fill:#000000" text-anchor="end">$30,000</text>
	<line x1="709.09" y1="1313.40" x2="669.12" y2="1313.40" style="stroke:#000000;stroke-width:5.76"/>
	<text x="649.07" y="1348.43" style="font-family:'Helvetica';font-size:99.99px;fill:#000000" text-anchor="end">$40,000</text>
	<line x1="709.09" y1="791.03" x2="669.12" y2="791.03" style="stroke:#000000;stroke-width:5.76"/>
	<text x="649.07" y="826.06" style="font-family:'Helvetica';font-size:99.99px;fill:#000000" text-anchor="end">$50,000</text>
	<line x1="709.09" y1="268.67" x2="669.12" y2="268.67" style="stroke:#000000;stroke-width:5.76"/>
	<text x="649.07" y="303.70" style="font-family:'Helvetica';font-size:99.99px;fill:#000000" text-anchor="end">$60,000</text>
	<text x="197.73" y="1232.46" style="font-family:'Helvetica';font-size:110.01px;fill:#000000" transform="rotate(-90 197.73,1232.46)" text-anchor="middle">Median Potential Earnings</text>
	<line x1="709.09" y1="2421.62" x2="3859.02" y2="2421.62" style="stroke:#000000;stroke-width:5.76"/>
	<line x1="709.09" y1="2421.62" x2="709.09" y2="2461.59" style="stroke:#000000;stroke-width:5.76"/>
	<text x="709.09" y="2551.57" style="font-family:'Helvetica';font-size:99.99px;fill:#000000" text-anchor="middle">0</text>
	<line x1="1465.20" y1="2421.62" x2="1465.20" y2="2461.59" style="stroke:#000000;stroke-width:5.76"/>
	<text x="1465.20" y="2551.57" style="font-family:'Helvetica';font-size:99.99px;fill:#000000" text-anchor="middle">0.05</text>
	<line x1="2221.19" y1="2421.62" x2="2221.19" y2="2461.59" style="stroke:#000000;stroke-width:5.76"/>
	<text x="2221.19" y="2551.57" style="font-family:'Helvetica';font-size:99.99px;fill:#000000" text-anchor="middle">0.10</text>
	<line x1="2977.30" y1="2421.62" x2="2977.30" y2="2461.59" style="stroke:#000000;stroke-width:5.76"/>
	<text x="2977.30" y="2551.57" style="font-family:'Helvetica';font-size:99.99px;fill:#000000" text-anchor="middle">0.15</text>
	<line x1="3733.29" y1="2421.62" x2="3733.29" y2="2461.59" style="stroke:#000000;stroke-width:5.76"/>
	<text x="3733.29" y="2551.57" style="font-family:'Helvetica';font-size:99.99px;fill:#000000" text-anchor="middle">0.20</text>
	<text x="2284.05" y="2726.15" style="font-family:'Helvetica';font-size:110.01px;fill:#000000" text-anchor="middle">Share of Concentrators</text>
</svg>
