<?xml version="1.0" encoding="UTF-8" standalone="no"?>
<!-- This is a Stata 19.5 generated SVG file (http://www.stata.com) -->

<svg version="1.1" width="5.500in" height="4.000in" viewBox="0 0 3960 2880" xmlns="http://www.w3.org/2000/svg" xmlns:xlink="http://www.w3.org/1999/xlink">
	<desc>Stata Graph - Graph</desc>
	<rect x="0" y="0" width="3960" height="2880" style="fill:#FFFFFF;stroke:none"/>
	<rect x="0.00" y="0.00" width="3959.88" height="2880.00" style="fill:#FFFFFF"/>
	<rect x="2.88" y="2.88" width="3954.12" height="2874.24" style="fill:none;stroke:#FFFFFF;stroke-width:5.76"/>
	<rect x="709.09" y="100.86" width="3149.93" height="2320.76" style="fill:#FFFFFF"/>
	<rect x="711.97" y="103.74" width="3144.17" height="2315.00" style="fill:none;stroke:#FFFFFF;stroke-width:5.76"/>
	<line x1="709.09" y1="2358.25" x2="3859.02" y2="2358.25" style="stroke:#E0E0E0;stroke-width:4.32"/>
	<line x1="709.09" y1="1835.89" x2="3859.02" y2="1835.89" style="stroke:#E0E0E0;stroke-width:4.32"/>
	<line x1="709.09" y1="1313.40" x2="3859.02" y2="1313.40" style="stroke:#E0E0E0;stroke-width:4.32"/>
	<line x1="709.09" y1="791.03" x2="3859.02" y2="791.03" style="stroke:#E0E0E0;stroke-width:4.32"/>
	<line x1="709.09" y1="268.67" x2="3859.02" y2="268.67" style="stroke:#E0E0E0;stroke-width:4.32"/>
	<line x1="709.09" y1="2421.62" x2="709.09" y2="100.86" style="stroke:#E0E0E0;stroke-width:4.32"/>
	<line x1="1326.48" y1="2421.62" x2="1326.48" y2="100.86" style="stroke:#E0E0E0;stroke-width:4.32"/>
	<line x1="1943.74" y1="2421.62" x2="1943.74" y2="100.86" style="stroke:#E0E0E0;stroke-width:4.32"/>
	<line x1="2561.13" y1="2421.62" x2="2561.13" y2="100.86" style="stroke:#E0E0E0;stroke-width:4.32"/>
	<line x1="3178.40" y1="2421.62" x2="3178.40" y2="100.86" style="stroke:#E0E0E0;stroke-width:4.32"/>
	<line x1="3795.78" y1="2421.62" x2="3795.78" y2="100.86" style="stroke:#E0E0E0;stroke-width:4.32"/>
	<circle cx="2307.44" cy="1774.75" r="65.51" style="fill:#1F77B4;fill-opacity:0.20"/>
	<circle cx="2307.44" cy="1774.75" r="59.03" style="fill:none;stroke:#1F77B4;stroke-opacity:0.30;stroke-width:12.96"/>
	<circle cx="1052.00" cy="1307.83" r="47.19" style="fill:#1F77B4;fill-opacity:0.20"/>
	<circle cx="1052.00" cy="1307.83" r="40.71" style="fill:none;stroke:#1F77B4;stroke-opacity:0.30;stroke-width:12.96"/>
	<circle cx="2291.60" cy="911.69" r="94.71" style="fill:#1F77B4;fill-opacity:0.20"/>
	<circle cx="2291.60" cy="911.69" r="88.23" style="fill:none;stroke:#1F77B4;stroke-opacity:0.30;stroke-width:12.96"/>
	<circle cx="2231.09" cy="1485.17" r="113.65" style="fill:#1F77B4;fill-opacity:0.20"/>
	<circle cx="2231.09" cy="1485.17" r="107.17" style="fill:none;stroke:#1F77B4;stroke-opacity:0.30;stroke-width:12.96"/>
	<circle cx="3173.45" cy="2105.30" r="42.12" style="fill:#1F77B4;fill-opacity:0.20"/>
	<circle cx="3173.45" cy="2105.30" r="35.64" style="fill:none;stroke:#1F77B4;stroke-opacity:0.30;stroke-width:12.96"/>
	<circle cx="2154.61" cy="1126.16" r="115.26" style="fill:#1F77B4;fill-opacity:0.20"/>
	<circle cx="2154.61" cy="1126.16" r="108.78" style="fill:none;stroke:#1F77B4;stroke-opacity:0.30;stroke-width:12.96"/>
	<circle cx="2307.44" cy="871.60" r="40.02" style="fill:#1F77B4;fill-opacity:0.20"/>
	<circle cx="2307.44" cy="871.60" r="33.54" style="fill:none;stroke:#1F77B4;stroke-opacity:0.30;stroke-width:12.96"/>
	<circle cx="3148.08" cy="1651.12" r="135.06" style="fill:#1F77B4;fill-opacity:0.20"/>
	<circle cx="3148.08" cy="1651.12" r="128.58" style="fill:none;stroke:#1F77B4;stroke-opacity:0.30;stroke-width:12.96"/>
	<circle cx="2422.78" cy="2247.25" r="102.51" style="fill:#1F77B4;fill-opacity:0.20"/>
	<circle cx="2422.78" cy="2247.25" r="96.03" style="fill:none;stroke:#1F77B4;stroke-opacity:0.30;stroke-width:12.96"/>
	<circle cx="2920.87" cy="2056.67" r="106.35" style="fill:#1F77B4;fill-opacity:0.20"/>
	<circle cx="2920.87" cy="2056.67" r="99.87" style="fill:none;stroke:#1F77B4;stroke-opacity:0.30;stroke-width:12.96"/>
	<circle cx="1667.53" cy="732.00" r="140.87" style="fill:#1F77B4;fill-opacity:0.20"/>
	<circle cx="1667.53" cy="732.00" r="134.39" style="fill:none;stroke:#1F77B4;stroke-opacity:0.30;stroke-width:12.96"/>
	<circle cx="2380.46" cy="1467.23" r="83.08" style="fill:#1F77B4;fill-opacity:0.20"/>
	<circle cx="2380.46" cy="1467.23" r="76.60" style="fill:none;stroke:#1F77B4;stroke-opacity:0.30;stroke-width:12.96"/>
	<circle cx="1276.73" cy="1426.51" r="23.56" style="fill:#1F77B4;fill-opacity:0.20"/>
	<circle cx="1276.73" cy="1426.51" r="17.08" style="fill:none;stroke:#1F77B4;stroke-opacity:0.30;stroke-width:12.96"/>
	<circle cx="2295.07" cy="1662.63" r="156.22" style="fill:#1F77B4;fill-opacity:0.20"/>
	<circle cx="2295.07" cy="1662.63" r="149.74" style="fill:none;stroke:#1F77B4;stroke-opacity:0.30;stroke-width:12.96"/>
	<circle cx="1342.19" cy="1235.06" r="119.96" style="fill:#1F77B4;fill-opacity:0.20"/>
	<circle cx="1342.19" cy="1235.06" r="113.48" style="fill:none;stroke:#1F77B4;stroke-opacity:0.30;stroke-width:12.96"/>
	<circle cx="974.28" cy="1581.20" r="42.37" style="fill:#1F77B4;fill-opacity:0.20"/>
	<circle cx="974.28" cy="1581.20" r="35.89" style="fill:none;stroke:#1F77B4;stroke-opacity:0.30;stroke-width:12.96"/>
	<path d=" M974.28 1148.68 L2073.80 1464.01 L3173.45 1779.21" stroke-linejoin="round" style="fill:none;stroke:#FF7F0E;stroke-width:12.96"/>
	<text x="2307.44" y="1802.64" style="font-family:'Helvetica';font-size:79.94px;fill:#606060" text-anchor="middle">Agric., Food &amp; Nat'l Resc's</text>
	<text x="1093.95" y="1335.72" style="font-family:'Helvetica';font-size:79.94px;fill:#606060">Architecture &amp; Constr.</text>
	<text x="2327.99" y="988.51" style="font-family:'Helvetica';font-size:79.94px;fill:#606060">Arts, A/V Tech. &amp; Comms.</text>
	<text x="2194.83" y="1562.11" style="font-family:'Helvetica';font-size:79.94px;fill:#606060" text-anchor="end">Bus. Mgmt. &amp; Admin.</text>
	<text x="3209.83" y="2182.11" style="font-family:'Helvetica';font-size:79.94px;fill:#606060">Educ. &amp; Training</text>
	<text x="2154.74" y="1154.05" style="font-family:'Helvetica';font-size:79.94px;fill:#606060" text-anchor="middle">Finance</text>
	<text x="2307.57" y="899.61" style="font-family:'Helvetica';font-size:79.94px;fill:#606060" text-anchor="middle">Gov't &amp; Pub. Admin.</text>
	<text x="3148.20" y="1679.14" style="font-family:'Helvetica';font-size:79.94px;fill:#606060" text-anchor="middle">Health Sci.</text>
	<text x="2422.90" y="2275.13" style="font-family:'Helvetica';font-size:79.94px;fill:#606060" text-anchor="middle">Hospitality &amp; Tourism</text>
	<text x="2921.00" y="2084.55" style="font-family:'Helvetica';font-size:79.94px;fill:#606060" text-anchor="middle">Human Services</text>
	<text x="1667.53" y="760.02" style="font-family:'Helvetica';font-size:79.94px;fill:#606060" text-anchor="middle">Information Tech.</text>
	<text x="2401.49" y="1430.84" style="font-family:'Helvetica';font-size:79.94px;fill:#606060">Law, Pub. Sfty., Correc. &amp; Sec.</text>
	<text x="1276.73" y="1454.52" style="font-family:'Helvetica';font-size:79.94px;fill:#606060" text-anchor="middle">Manufacturing</text>
	<text x="2295.19" y="1690.52" style="font-family:'Helvetica';font-size:79.94px;fill:#606060" text-anchor="middle">Marketing</text>
	<text x="1342.19" y="1193.11" style="font-family:'Helvetica';font-size:79.94px;fill:#606060" text-anchor="middle">STEM</text>
	<text x="995.45" y="1673.49" style="font-family:'Helvetica';font-size:79.94px;fill:#606060">Trans., Dist. &amp; Logist.</text>
	<line x1="709.09" y1="2421.62" x2="709.09" y2="100.86" style="stroke:#000000;stroke-width:5.76"/>
	<line x1="709.09" y1="2358.25" x2="669.12" y2="2358.25" style="stroke:#000000;stroke-width:5.76"/>
	<text x="649.07" y="2393.28" style="font-family:'Helvetica';font-size:99.99px;fill:#000000" text-anchor="end">$20,000</text>
	<line x1="709.09" y1="1835.89" x2="669.12" y2="1835.89" style="stroke:#000000;stroke-width:5.76"/>
	<text x="649.07" y="1870.92" style="font-family:'Helvetica';font-size:99.99px;fill:#000000" text-anchor="end">$30,000</text>
	<line x1="709.09" y1="1313.40" x2="669.12" y2="1313.40" style="stroke:#000000;stroke-width:5.76"/>
	<text x="649.07" y="1348.43" style="font-family:'Helvetica';font-size:99.99px;fill:#000000" text-anchor="end">$40,000</text>
	<line x1="709.09" y1="791.03" x2="669.12" y2="791.03" style="stroke:#000000;stroke-width:5.76"/>
	<text x="649.07" y="826.06" style="font-family:'Helvetica';font-size:99.99px;fill:#000000" text-anchor="end">$50,000</text>
	<line x1="709.09" y1="268.67" x2="669.12" y2="268.67" style="stroke:#000000;stroke-width:5.76"/>
	<text x="649.07" y="303.70" style="font-family:'Helvetica';font-size:99.99px;fill:#000000" text-anchor="end">$60,000</text>
	<text x="197.73" y="1232.46" style="font-family:'Helvetica';font-size:110.01px;fill:#000000" transform="rotate(-90 197.73,1232.46)" text-anchor="middle">Median Potential Earnings</text>
	<line x1="709.09" y1="2421.62" x2="3859.02" y2="2421.62" style="stroke:#000000;stroke-width:5.76"/>
	<line x1="709.09" y1="2421.62" x2="709.09" y2="2461.59" style="stroke:#000000;stroke-width:5.76"/>
	<text x="709.09" y="2551.57" style="font-family:'Helvetica';font-size:99.99px;fill:#000000" text-anchor="middle">0</text>
	<line x1="1326.48" y1="2421.62" x2="1326.48" y2="2461.59" style="stroke:#000000;stroke-width:5.76"/>
	<text x="1326.48" y="2551.57" style="font-family:'Helvetica';font-size:99.99px;fill:#000000" text-anchor="middle">0.2</text>
	<line x1="1943.74" y1="2421.62" x2="1943.74" y2="2461.59" style="stroke:#000000;stroke-width:5.76"/>
	<text x="1943.74" y="2551.57" style="font-family:'Helvetica';font-size:99.99px;fill:#000000" text-anchor="middle">0.4</text>
	<line x1="2561.13" y1="2421.62" x2="2561.13" y2="2461.59" style="stroke:#000000;stroke-width:5.76"/>
	<text x="2561.13" y="2551.57" style="font-family:'Helvetica';font-size:99.99px;fill:#000000" text-anchor="middle">0.6</text>
	<line x1="3178.40" y1="2421.62" x2="3178.40" y2="2461.59" style="stroke:#000000;stroke-width:5.76"/>
	<text x="3178.40" y="2551.57" style="font-family:'Helvetica';font-size:99.99px;fill:#000000" text-anchor="middle">0.8</text>
	<line x1="3795.78" y1="2421.62" x2="3795.78" y2="2461.59" style="stroke:#000000;stroke-width:5.76"/>
	<text x="3795.78" y="2551.57" style="font-family:'Helvetica';font-size:99.99px;fill:#000000" text-anchor="middle">1.0</text>
	<text x="2284.05" y="2726.15" style="font-family:'Helvetica';font-size:110.01px;fill:#000000" text-anchor="middle">Female Share</text>
</svg>
