<?xml version="1.0" encoding="UTF-8" standalone="no"?>
<!-- This is a Stata 19.5 generated SVG file (http://www.stata.com) -->

<svg version="1.1" width="4.000in" height="3.500in" viewBox="0 0 2880 2520" xmlns="http://www.w3.org/2000/svg" xmlns:xlink="http://www.w3.org/1999/xlink">
	<desc>Stata Graph - Graph</desc>
	<rect x="0" y="0" width="2880" height="2520" style="fill:#FFFFFF;stroke:none"/>
	<rect x="0.00" y="0.00" width="2880.00" height="2520.00" style="fill:#FFFFFF"/>
	<rect x="2.52" y="2.52" width="2874.96" height="2514.96" style="fill:none;stroke:#FFFFFF;stroke-width:5.04"/>
	<rect x="396.81" y="88.20" width="2394.99" height="1853.19" style="fill:#FFFFFF"/>
	<rect x="400.21" y="91.60" width="2388.19" height="1846.39" style="fill:none;stroke:#FFFFFF;stroke-width:6.80"/>
	<line x1="515.88" y1="1941.39" x2="515.88" y2="1921.23" style="stroke:#D0D0D0;stroke-width:5.10"/>
	<line x1="515.88" y1="1903.59" x2="515.88" y2="1883.43" style="stroke:#D0D0D0;stroke-width:5.10"/>
	<line x1="515.88" y1="1865.79" x2="515.88" y2="1845.63" style="stroke:#D0D0D0;stroke-width:5.10"/>
	<line x1="515.88" y1="1827.99" x2="515.88" y2="1807.83" style="stroke:#D0D0D0;stroke-width:5.10"/>
	<line x1="515.88" y1="1790.19" x2="515.88" y2="1770.03" style="stroke:#D0D0D0;stroke-width:5.10"/>
	<line x1="515.88" y1="1752.39" x2="515.88" y2="1732.23" style="stroke:#D0D0D0;stroke-width:5.10"/>
	<line x1="515.88" y1="1714.59" x2="515.88" y2="1694.43" style="stroke:#D0D0D0;stroke-width:5.10"/>
	<line x1="515.88" y1="1676.79" x2="515.88" y2="1656.63" style="stroke:#D0D0D0;stroke-width:5.10"/>
	<line x1="515.88" y1="1638.99" x2="515.88" y2="1618.83" style="stroke:#D0D0D0;stroke-width:5.10"/>
	<line x1="515.88" y1="1601.28" x2="515.88" y2="1581.12" style="stroke:#D0D0D0;stroke-width:5.10"/>
	<line x1="515.88" y1="1563.48" x2="515.88" y2="1543.32" style="stroke:#D0D0D0;stroke-width:5.10"/>
	<line x1="515.88" y1="1525.68" x2="515.88" y2="1505.52" style="stroke:#D0D0D0;stroke-width:5.10"/>
	<line x1="515.88" y1="1487.88" x2="515.88" y2="1467.72" style="stroke:#D0D0D0;stroke-width:5.10"/>
	<line x1="515.88" y1="1450.08" x2="515.88" y2="1429.92" style="stroke:#D0D0D0;stroke-width:5.10"/>
	<line x1="515.88" y1="1412.28" x2="515.88" y2="1392.12" style="stroke:#D0D0D0;stroke-width:5.10"/>
	<line x1="515.88" y1="1374.48" x2="515.88" y2="1354.32" style="stroke:#D0D0D0;stroke-width:5.10"/>
	<line x1="515.88" y1="1336.68" x2="515.88" y2="1316.52" style="stroke:#D0D0D0;stroke-width:5.10"/>
	<line x1="515.88" y1="1298.88" x2="515.88" y2="1278.72" style="stroke:#D0D0D0;stroke-width:5.10"/>
	<line x1="515.88" y1="1261.08" x2="515.88" y2="1240.92" style="stroke:#D0D0D0;stroke-width:5.10"/>
	<line x1="515.88" y1="1223.28" x2="515.88" y2="1203.12" style="stroke:#D0D0D0;stroke-width:5.10"/>
	<line x1="515.88" y1="1185.48" x2="515.88" y2="1165.32" style="stroke:#D0D0D0;stroke-width:5.10"/>
	<line x1="515.88" y1="1147.68" x2="515.88" y2="1127.52" style="stroke:#D0D0D0;stroke-width:5.10"/>
	<line x1="515.88" y1="1109.88" x2="515.88" y2="1089.72" style="stroke:#D0D0D0;stroke-width:5.10"/>
	<line x1="515.88" y1="1072.08" x2="515.88" y2="1051.92" style="stroke:#D0D0D0;stroke-width:5.10"/>
	<line x1="515.88" y1="1034.28" x2="515.88" y2="1014.12" style="stroke:#D0D0D0;stroke-width:5.10"/>
	<line x1="515.88" y1="996.48" x2="515.88" y2="976.32" style="stroke:#D0D0D0;stroke-width:5.10"/>
	<line x1="515.88" y1="958.77" x2="515.88" y2="938.61" style="stroke:#D0D0D0;stroke-width:5.10"/>
	<line x1="515.88" y1="920.97" x2="515.88" y2="900.81" style="stroke:#D0D0D0;stroke-width:5.10"/>
	<line x1="515.88" y1="883.17" x2="515.88" y2="863.01" style="stroke:#D0D0D0;stroke-width:5.10"/>
	<line x1="515.88" y1="845.37" x2="515.88" y2="825.21" style="stroke:#D0D0D0;stroke-width:5.10"/>
	<line x1="515.88" y1="807.57" x2="515.88" y2="787.41" style="stroke:#D0D0D0;stroke-width:5.10"/>
	<line x1="515.88" y1="769.77" x2="515.88" y2="749.61" style="stroke:#D0D0D0;stroke-width:5.10"/>
	<line x1="515.88" y1="731.97" x2="515.88" y2="711.81" style="stroke:#D0D0D0;stroke-width:5.10"/>
	<line x1="515.88" y1="694.17" x2="515.88" y2="674.01" style="stroke:#D0D0D0;stroke-width:5.10"/>
	<line x1="515.88" y1="656.37" x2="515.88" y2="636.21" style="stroke:#D0D0D0;stroke-width:5.10"/>
	<line x1="515.88" y1="618.57" x2="515.88" y2="598.41" style="stroke:#D0D0D0;stroke-width:5.10"/>
	<line x1="515.88" y1="580.77" x2="515.88" y2="560.61" style="stroke:#D0D0D0;stroke-width:5.10"/>
	<line x1="515.88" y1="542.97" x2="515.88" y2="522.81" style="stroke:#D0D0D0;stroke-width:5.10"/>
	<line x1="515.88" y1="505.17" x2="515.88" y2="485.01" style="stroke:#D0D0D0;stroke-width:5.10"/>
	<line x1="515.88" y1="467.37" x2="515.88" y2="447.21" style="stroke:#D0D0D0;stroke-width:5.10"/>
	<line x1="515.88" y1="429.57" x2="515.88" y2="409.41" style="stroke:#D0D0D0;stroke-width:5.10"/>
	<line x1="515.88" y1="391.77" x2="515.88" y2="371.61" style="stroke:#D0D0D0;stroke-width:5.10"/>
	<line x1="515.88" y1="354.06" x2="515.88" y2="333.90" style="stroke:#D0D0D0;stroke-width:5.10"/>
	<line x1="515.88" y1="316.26" x2="515.88" y2="296.10" style="stroke:#D0D0D0;stroke-width:5.10"/>
	<line x1="515.88" y1="278.46" x2="515.88" y2="258.30" style="stroke:#D0D0D0;stroke-width:5.10"/>
	<line x1="515.88" y1="240.66" x2="515.88" y2="220.50" style="stroke:#D0D0D0;stroke-width:5.10"/>
	<line x1="515.88" y1="202.86" x2="515.88" y2="182.70" style="stroke:#D0D0D0;stroke-width:5.10"/>
	<line x1="515.88" y1="165.06" x2="515.88" y2="144.90" style="stroke:#D0D0D0;stroke-width:5.10"/>
	<line x1="515.88" y1="127.26" x2="515.88" y2="107.10" style="stroke:#D0D0D0;stroke-width:5.10"/>
	<line x1="515.88" y1="89.46" x2="515.88" y2="88.20" style="stroke:#D0D0D0;stroke-width:5.10"/>
	<line x1="1055.07" y1="1941.39" x2="1055.07" y2="1921.23" style="stroke:#D0D0D0;stroke-width:5.10"/>
	<line x1="1055.07" y1="1903.59" x2="1055.07" y2="1883.43" style="stroke:#D0D0D0;stroke-width:5.10"/>
	<line x1="1055.07" y1="1865.79" x2="1055.07" y2="1845.63" style="stroke:#D0D0D0;stroke-width:5.10"/>
	<line x1="1055.07" y1="1827.99" x2="1055.07" y2="1807.83" style="stroke:#D0D0D0;stroke-width:5.10"/>
	<line x1="1055.07" y1="1790.19" x2="1055.07" y2="1770.03" style="stroke:#D0D0D0;stroke-width:5.10"/>
	<line x1="1055.07" y1="1752.39" x2="1055.07" y2="1732.23" style="stroke:#D0D0D0;stroke-width:5.10"/>
	<line x1="1055.07" y1="1714.59" x2="1055.07" y2="1694.43" style="stroke:#D0D0D0;stroke-width:5.10"/>
	<line x1="1055.07" y1="1676.79" x2="1055.07" y2="1656.63" style="stroke:#D0D0D0;stroke-width:5.10"/>
	<line x1="1055.07" y1="1638.99" x2="1055.07" y2="1618.83" style="stroke:#D0D0D0;stroke-width:5.10"/>
	<line x1="1055.07" y1="1601.28" x2="1055.07" y2="1581.12" style="stroke:#D0D0D0;stroke-width:5.10"/>
	<line x1="1055.07" y1="1563.48" x2="1055.07" y2="1543.32" style="stroke:#D0D0D0;stroke-width:5.10"/>
	<line x1="1055.07" y1="1525.68" x2="1055.07" y2="1505.52" style="stroke:#D0D0D0;stroke-width:5.10"/>
	<line x1="1055.07" y1="1487.88" x2="1055.07" y2="1467.72" style="stroke:#D0D0D0;stroke-width:5.10"/>
	<line x1="1055.07" y1="1450.08" x2="1055.07" y2="1429.92" style="stroke:#D0D0D0;stroke-width:5.10"/>
	<line x1="1055.07" y1="1412.28" x2="1055.07" y2="1392.12" style="stroke:#D0D0D0;stroke-width:5.10"/>
	<line x1="1055.07" y1="1374.48" x2="1055.07" y2="1354.32" style="stroke:#D0D0D0;stroke-width:5.10"/>
	<line x1="1055.07" y1="1336.68" x2="1055.07" y2="1316.52" style="stroke:#D0D0D0;stroke-width:5.10"/>
	<line x1="1055.07" y1="1298.88" x2="1055.07" y2="1278.72" style="stroke:#D0D0D0;stroke-width:5.10"/>
	<line x1="1055.07" y1="1261.08" x2="1055.07" y2="1240.92" style="stroke:#D0D0D0;stroke-width:5.10"/>
	<line x1="1055.07" y1="1223.28" x2="1055.07" y2="1203.12" style="stroke:#D0D0D0;stroke-width:5.10"/>
	<line x1="1055.07" y1="1185.48" x2="1055.07" y2="1165.32" style="stroke:#D0D0D0;stroke-width:5.10"/>
	<line x1="1055.07" y1="1147.68" x2="1055.07" y2="1127.52" style="stroke:#D0D0D0;stroke-width:5.10"/>
	<line x1="1055.07" y1="1109.88" x2="1055.07" y2="1089.72" style="stroke:#D0D0D0;stroke-width:5.10"/>
	<line x1="1055.07" y1="1072.08" x2="1055.07" y2="1051.92" style="stroke:#D0D0D0;stroke-width:5.10"/>
	<line x1="1055.07" y1="1034.28" x2="1055.07" y2="1014.12" style="stroke:#D0D0D0;stroke-width:5.10"/>
	<line x1="1055.07" y1="996.48" x2="1055.07" y2="976.32" style="stroke:#D0D0D0;stroke-width:5.10"/>
	<line x1="1055.07" y1="958.77" x2="1055.07" y2="938.61" style="stroke:#D0D0D0;stroke-width:5.10"/>
	<line x1="1055.07" y1="920.97" x2="1055.07" y2="900.81" style="stroke:#D0D0D0;stroke-width:5.10"/>
	<line x1="1055.07" y1="883.17" x2="1055.07" y2="863.01" style="stroke:#D0D0D0;stroke-width:5.10"/>
	<line x1="1055.07" y1="845.37" x2="1055.07" y2="825.21" style="stroke:#D0D0D0;stroke-width:5.10"/>
	<line x1="1055.07" y1="807.57" x2="1055.07" y2="787.41" style="stroke:#D0D0D0;stroke-width:5.10"/>
	<line x1="1055.07" y1="769.77" x2="1055.07" y2="749.61" style="stroke:#D0D0D0;stroke-width:5.10"/>
	<line x1="1055.07" y1="731.97" x2="1055.07" y2="711.81" style="stroke:#D0D0D0;stroke-width:5.10"/>
	<line x1="1055.07" y1="694.17" x2="1055.07" y2="674.01" style="stroke:#D0D0D0;stroke-width:5.10"/>
	<line x1="1055.07" y1="656.37" x2="1055.07" y2="636.21" style="stroke:#D0D0D0;stroke-width:5.10"/>
	<line x1="1055.07" y1="618.57" x2="1055.07" y2="598.41" style="stroke:#D0D0D0;stroke-width:5.10"/>
	<line x1="1055.07" y1="580.77" x2="1055.07" y2="560.61" style="stroke:#D0D0D0;stroke-width:5.10"/>
	<line x1="1055.07" y1="542.97" x2="1055.07" y2="522.81" style="stroke:#D0D0D0;stroke-width:5.10"/>
	<line x1="1055.07" y1="505.17" x2="1055.07" y2="485.01" style="stroke:#D0D0D0;stroke-width:5.10"/>
	<line x1="1055.07" y1="467.37" x2="1055.07" y2="447.21" style="stroke:#D0D0D0;stroke-width:5.10"/>
	<line x1="1055.07" y1="429.57" x2="1055.07" y2="409.41" style="stroke:#D0D0D0;stroke-width:5.10"/>
	<line x1="1055.07" y1="391.77" x2="1055.07" y2="371.61" style="stroke:#D0D0D0;stroke-width:5.10"/>
	<line x1="1055.07" y1="354.06" x2="1055.07" y2="333.90" style="stroke:#D0D0D0;stroke-width:5.10"/>
	<line x1="1055.07" y1="316.26" x2="1055.07" y2="296.10" style="stroke:#D0D0D0;stroke-width:5.10"/>
	<line x1="1055.07" y1="278.46" x2="1055.07" y2="258.30" style="stroke:#D0D0D0;stroke-width:5.10"/>
	<line x1="1055.07" y1="240.66" x2="1055.07" y2="220.50" style="stroke:#D0D0D0;stroke-width:5.10"/>
	<line x1="1055.07" y1="202.86" x2="1055.07" y2="182.70" style="stroke:#D0D0D0;stroke-width:5.10"/>
	<line x1="1055.07" y1="165.06" x2="1055.07" y2="144.90" style="stroke:#D0D0D0;stroke-width:5.10"/>
	<line x1="1055.07" y1="127.26" x2="1055.07" y2="107.10" style="stroke:#D0D0D0;stroke-width:5.10"/>
	<line x1="1055.07" y1="89.46" x2="1055.07" y2="88.20" style="stroke:#D0D0D0;stroke-width:5.10"/>
	<line x1="1594.26" y1="1941.39" x2="1594.26" y2="1921.23" style="stroke:#D0D0D0;stroke-width:5.10"/>
	<line x1="1594.26" y1="1903.59" x2="1594.26" y2="1883.43" style="stroke:#D0D0D0;stroke-width:5.10"/>
	<line x1="1594.26" y1="1865.79" x2="1594.26" y2="1845.63" style="stroke:#D0D0D0;stroke-width:5.10"/>
	<line x1="1594.26" y1="1827.99" x2="1594.26" y2="1807.83" style="stroke:#D0D0D0;stroke-width:5.10"/>
	<line x1="1594.26" y1="1790.19" x2="1594.26" y2="1770.03" style="stroke:#D0D0D0;stroke-width:5.10"/>
	<line x1="1594.26" y1="1752.39" x2="1594.26" y2="1732.23" style="stroke:#D0D0D0;stroke-width:5.10"/>
	<line x1="1594.26" y1="1714.59" x2="1594.26" y2="1694.43" style="stroke:#D0D0D0;stroke-width:5.10"/>
	<line x1="1594.26" y1="1676.79" x2="1594.26" y2="1656.63" style="stroke:#D0D0D0;stroke-width:5.10"/>
	<line x1="1594.26" y1="1638.99" x2="1594.26" y2="1618.83" style="stroke:#D0D0D0;stroke-width:5.10"/>
	<line x1="1594.26" y1="1601.28" x2="1594.26" y2="1581.12" style="stroke:#D0D0D0;stroke-width:5.10"/>
	<line x1="1594.26" y1="1563.48" x2="1594.26" y2="1543.32" style="stroke:#D0D0D0;stroke-width:5.10"/>
	<line x1="1594.26" y1="1525.68" x2="1594.26" y2="1505.52" style="stroke:#D0D0D0;stroke-width:5.10"/>
	<line x1="1594.26" y1="1487.88" x2="1594.26" y2="1467.72" style="stroke:#D0D0D0;stroke-width:5.10"/>
	<line x1="1594.26" y1="1450.08" x2="1594.26" y2="1429.92" style="stroke:#D0D0D0;stroke-width:5.10"/>
	<line x1="1594.26" y1="1412.28" x2="1594.26" y2="1392.12" style="stroke:#D0D0D0;stroke-width:5.10"/>
	<line x1="1594.26" y1="1374.48" x2="1594.26" y2="1354.32" style="stroke:#D0D0D0;stroke-width:5.10"/>
	<line x1="1594.26" y1="1336.68" x2="1594.26" y2="1316.52" style="stroke:#D0D0D0;stroke-width:5.10"/>
	<line x1="1594.26" y1="1298.88" x2="1594.26" y2="1278.72" style="stroke:#D0D0D0;stroke-width:5.10"/>
	<line x1="1594.26" y1="1261.08" x2="1594.26" y2="1240.92" style="stroke:#D0D0D0;stroke-width:5.10"/>
	<line x1="1594.26" y1="1223.28" x2="1594.26" y2="1203.12" style="stroke:#D0D0D0;stroke-width:5.10"/>
	<line x1="1594.26" y1="1185.48" x2="1594.26" y2="1165.32" style="stroke:#D0D0D0;stroke-width:5.10"/>
	<line x1="1594.26" y1="1147.68" x2="1594.26" y2="1127.52" style="stroke:#D0D0D0;stroke-width:5.10"/>
	<line x1="1594.26" y1="1109.88" x2="1594.26" y2="1089.72" style="stroke:#D0D0D0;stroke-width:5.10"/>
	<line x1="1594.26" y1="1072.08" x2="1594.26" y2="1051.92" style="stroke:#D0D0D0;stroke-width:5.10"/>
	<line x1="1594.26" y1="1034.28" x2="1594.26" y2="1014.12" style="stroke:#D0D0D0;stroke-width:5.10"/>
	<line x1="1594.26" y1="996.48" x2="1594.26" y2="976.32" style="stroke:#D0D0D0;stroke-width:5.10"/>
	<line x1="1594.26" y1="958.77" x2="1594.26" y2="938.61" style="stroke:#D0D0D0;stroke-width:5.10"/>
	<line x1="1594.26" y1="920.97" x2="1594.26" y2="900.81" style="stroke:#D0D0D0;stroke-width:5.10"/>
	<line x1="1594.26" y1="883.17" x2="1594.26" y2="863.01" style="stroke:#D0D0D0;stroke-width:5.10"/>
	<line x1="1594.26" y1="845.37" x2="1594.26" y2="825.21" style="stroke:#D0D0D0;stroke-width:5.10"/>
	<line x1="1594.26" y1="807.57" x2="1594.26" y2="787.41" style="stroke:#D0D0D0;stroke-width:5.10"/>
	<line x1="1594.26" y1="769.77" x2="1594.26" y2="749.61" style="stroke:#D0D0D0;stroke-width:5.10"/>
	<line x1="1594.26" y1="731.97" x2="1594.26" y2="711.81" style="stroke:#D0D0D0;stroke-width:5.10"/>
	<line x1="1594.26" y1="694.17" x2="1594.26" y2="674.01" style="stroke:#D0D0D0;stroke-width:5.10"/>
	<line x1="1594.26" y1="656.37" x2="1594.26" y2="636.21" style="stroke:#D0D0D0;stroke-width:5.10"/>
	<line x1="1594.26" y1="618.57" x2="1594.26" y2="598.41" style="stroke:#D0D0D0;stroke-width:5.10"/>
	<line x1="1594.26" y1="580.77" x2="1594.26" y2="560.61" style="stroke:#D0D0D0;stroke-width:5.10"/>
	<line x1="1594.26" y1="542.97" x2="1594.26" y2="522.81" style="stroke:#D0D0D0;stroke-width:5.10"/>
	<line x1="1594.26" y1="505.17" x2="1594.26" y2="485.01" style="stroke:#D0D0D0;stroke-width:5.10"/>
	<line x1="1594.26" y1="467.37" x2="1594.26" y2="447.21" style="stroke:#D0D0D0;stroke-width:5.10"/>
	<line x1="1594.26" y1="429.57" x2="1594.26" y2="409.41" style="stroke:#D0D0D0;stroke-width:5.10"/>
	<line x1="1594.26" y1="391.77" x2="1594.26" y2="371.61" style="stroke:#D0D0D0;stroke-width:5.10"/>
	<line x1="1594.26" y1="354.06" x2="1594.26" y2="333.90" style="stroke:#D0D0D0;stroke-width:5.10"/>
	<line x1="1594.26" y1="316.26" x2="1594.26" y2="296.10" style="stroke:#D0D0D0;stroke-width:5.10"/>
	<line x1="1594.26" y1="278.46" x2="1594.26" y2="258.30" style="stroke:#D0D0D0;stroke-width:5.10"/>
	<line x1="1594.26" y1="240.66" x2="1594.26" y2="220.50" style="stroke:#D0D0D0;stroke-width:5.10"/>
	<line x1="1594.26" y1="202.86" x2="1594.26" y2="182.70" style="stroke:#D0D0D0;stroke-width:5.10"/>
	<line x1="1594.26" y1="165.06" x2="1594.26" y2="144.90" style="stroke:#D0D0D0;stroke-width:5.10"/>
	<line x1="1594.26" y1="127.26" x2="1594.26" y2="107.10" style="stroke:#D0D0D0;stroke-width:5.10"/>
	<line x1="1594.26" y1="89.46" x2="1594.26" y2="88.20" style="stroke:#D0D0D0;stroke-width:5.10"/>
	<line x1="2133.54" y1="1941.39" x2="2133.54" y2="1921.23" style="stroke:#D0D0D0;stroke-width:5.10"/>
	<line x1="2133.54" y1="1903.59" x2="2133.54" y2="1883.43" style="stroke:#D0D0D0;stroke-width:5.10"/>
	<line x1="2133.54" y1="1865.79" x2="2133.54" y2="1845.63" style="stroke:#D0D0D0;stroke-width:5.10"/>
	<line x1="2133.54" y1="1827.99" x2="2133.54" y2="1807.83" style="stroke:#D0D0D0;stroke-width:5.10"/>
	<line x1="2133.54" y1="1790.19" x2="2133.54" y2="1770.03" style="stroke:#D0D0D0;stroke-width:5.10"/>
	<line x1="2133.54" y1="1752.39" x2="2133.54" y2="1732.23" style="stroke:#D0D0D0;stroke-width:5.10"/>
	<line x1="2133.54" y1="1714.59" x2="2133.54" y2="1694.43" style="stroke:#D0D0D0;stroke-width:5.10"/>
	<line x1="2133.54" y1="1676.79" x2="2133.54" y2="1656.63" style="stroke:#D0D0D0;stroke-width:5.10"/>
	<line x1="2133.54" y1="1638.99" x2="2133.54" y2="1618.83" style="stroke:#D0D0D0;stroke-width:5.10"/>
	<line x1="2133.54" y1="1601.28" x2="2133.54" y2="1581.12" style="stroke:#D0D0D0;stroke-width:5.10"/>
	<line x1="2133.54" y1="1563.48" x2="2133.54" y2="1543.32" style="stroke:#D0D0D0;stroke-width:5.10"/>
	<line x1="2133.54" y1="1525.68" x2="2133.54" y2="1505.52" style="stroke:#D0D0D0;stroke-width:5.10"/>
	<line x1="2133.54" y1="1487.88" x2="2133.54" y2="1467.72" style="stroke:#D0D0D0;stroke-width:5.10"/>
	<line x1="2133.54" y1="1450.08" x2="2133.54" y2="1429.92" style="stroke:#D0D0D0;stroke-width:5.10"/>
	<line x1="2133.54" y1="1412.28" x2="2133.54" y2="1392.12" style="stroke:#D0D0D0;stroke-width:5.10"/>
	<line x1="2133.54" y1="1374.48" x2="2133.54" y2="1354.32" style="stroke:#D0D0D0;stroke-width:5.10"/>
	<line x1="2133.54" y1="1336.68" x2="2133.54" y2="1316.52" style="stroke:#D0D0D0;stroke-width:5.10"/>
	<line x1="2133.54" y1="1298.88" x2="2133.54" y2="1278.72" style="stroke:#D0D0D0;stroke-width:5.10"/>
	<line x1="2133.54" y1="1261.08" x2="2133.54" y2="1240.92" style="stroke:#D0D0D0;stroke-width:5.10"/>
	<line x1="2133.54" y1="1223.28" x2="2133.54" y2="1203.12" style="stroke:#D0D0D0;stroke-width:5.10"/>
	<line x1="2133.54" y1="1185.48" x2="2133.54" y2="1165.32" style="stroke:#D0D0D0;stroke-width:5.10"/>
	<line x1="2133.54" y1="1147.68" x2="2133.54" y2="1127.52" style="stroke:#D0D0D0;stroke-width:5.10"/>
	<line x1="2133.54" y1="1109.88" x2="2133.54" y2="1089.72" style="stroke:#D0D0D0;stroke-width:5.10"/>
	<line x1="2133.54" y1="1072.08" x2="2133.54" y2="1051.92" style="stroke:#D0D0D0;stroke-width:5.10"/>
	<line x1="2133.54" y1="1034.28" x2="2133.54" y2="1014.12" style="stroke:#D0D0D0;stroke-width:5.10"/>
	<line x1="2133.54" y1="996.48" x2="2133.54" y2="976.32" style="stroke:#D0D0D0;stroke-width:5.10"/>
	<line x1="2133.54" y1="958.77" x2="2133.54" y2="938.61" style="stroke:#D0D0D0;stroke-width:5.10"/>
	<line x1="2133.54" y1="920.97" x2="2133.54" y2="900.81" style="stroke:#D0D0D0;stroke-width:5.10"/>
	<line x1="2133.54" y1="883.17" x2="2133.54" y2="863.01" style="stroke:#D0D0D0;stroke-width:5.10"/>
	<line x1="2133.54" y1="845.37" x2="2133.54" y2="825.21" style="stroke:#D0D0D0;stroke-width:5.10"/>
	<line x1="2133.54" y1="807.57" x2="2133.54" y2="787.41" style="stroke:#D0D0D0;stroke-width:5.10"/>
	<line x1="2133.54" y1="769.77" x2="2133.54" y2="749.61" style="stroke:#D0D0D0;stroke-width:5.10"/>
	<line x1="2133.54" y1="731.97" x2="2133.54" y2="711.81" style="stroke:#D0D0D0;stroke-width:5.10"/>
	<line x1="2133.54" y1="694.17" x2="2133.54" y2="674.01" style="stroke:#D0D0D0;stroke-width:5.10"/>
	<line x1="2133.54" y1="656.37" x2="2133.54" y2="636.21" style="stroke:#D0D0D0;stroke-width:5.10"/>
	<line x1="2133.54" y1="618.57" x2="2133.54" y2="598.41" style="stroke:#D0D0D0;stroke-width:5.10"/>
	<line x1="2133.54" y1="580.77" x2="2133.54" y2="560.61" style="stroke:#D0D0D0;stroke-width:5.10"/>
	<line x1="2133.54" y1="542.97" x2="2133.54" y2="522.81" style="stroke:#D0D0D0;stroke-width:5.10"/>
	<line x1="2133.54" y1="505.17" x2="2133.54" y2="485.01" style="stroke:#D0D0D0;stroke-width:5.10"/>
	<line x1="2133.54" y1="467.37" x2="2133.54" y2="447.21" style="stroke:#D0D0D0;stroke-width:5.10"/>
	<line x1="2133.54" y1="429.57" x2="2133.54" y2="409.41" style="stroke:#D0D0D0;stroke-width:5.10"/>
	<line x1="2133.54" y1="391.77" x2="2133.54" y2="371.61" style="stroke:#D0D0D0;stroke-width:5.10"/>
	<line x1="2133.54" y1="354.06" x2="2133.54" y2="333.90" style="stroke:#D0D0D0;stroke-width:5.10"/>
	<line x1="2133.54" y1="316.26" x2="2133.54" y2="296.10" style="stroke:#D0D0D0;stroke-width:5.10"/>
	<line x1="2133.54" y1="278.46" x2="2133.54" y2="258.30" style="stroke:#D0D0D0;stroke-width:5.10"/>
	<line x1="2133.54" y1="240.66" x2="2133.54" y2="220.50" style="stroke:#D0D0D0;stroke-width:5.10"/>
	<line x1="2133.54" y1="202.86" x2="2133.54" y2="182.70" style="stroke:#D0D0D0;stroke-width:5.10"/>
	<line x1="2133.54" y1="165.06" x2="2133.54" y2="144.90" style="stroke:#D0D0D0;stroke-width:5.10"/>
	<line x1="2133.54" y1="127.26" x2="2133.54" y2="107.10" style="stroke:#D0D0D0;stroke-width:5.10"/>
	<line x1="2133.54" y1="89.46" x2="2133.54" y2="88.20" style="stroke:#D0D0D0;stroke-width:5.10"/>
	<line x1="2672.73" y1="1941.39" x2="2672.73" y2="1921.23" style="stroke:#D0D0D0;stroke-width:5.10"/>
	<line x1="2672.73" y1="1903.59" x2="2672.73" y2="1883.43" style="stroke:#D0D0D0;stroke-width:5.10"/>
	<line x1="2672.73" y1="1865.79" x2="2672.73" y2="1845.63" style="stroke:#D0D0D0;stroke-width:5.10"/>
	<line x1="2672.73" y1="1827.99" x2="2672.73" y2="1807.83" style="stroke:#D0D0D0;stroke-width:5.10"/>
	<line x1="2672.73" y1="1790.19" x2="2672.73" y2="1770.03" style="stroke:#D0D0D0;stroke-width:5.10"/>
	<line x1="2672.73" y1="1752.39" x2="2672.73" y2="1732.23" style="stroke:#D0D0D0;stroke-width:5.10"/>
	<line x1="2672.73" y1="1714.59" x2="2672.73" y2="1694.43" style="stroke:#D0D0D0;stroke-width:5.10"/>
	<line x1="2672.73" y1="1676.79" x2="2672.73" y2="1656.63" style="stroke:#D0D0D0;stroke-width:5.10"/>
	<line x1="2672.73" y1="1638.99" x2="2672.73" y2="1618.83" style="stroke:#D0D0D0;stroke-width:5.10"/>
	<line x1="2672.73" y1="1601.28" x2="2672.73" y2="1581.12" style="stroke:#D0D0D0;stroke-width:5.10"/>
	<line x1="2672.73" y1="1563.48" x2="2672.73" y2="1543.32" style="stroke:#D0D0D0;stroke-width:5.10"/>
	<line x1="2672.73" y1="1525.68" x2="2672.73" y2="1505.52" style="stroke:#D0D0D0;stroke-width:5.10"/>
	<line x1="2672.73" y1="1487.88" x2="2672.73" y2="1467.72" style="stroke:#D0D0D0;stroke-width:5.10"/>
	<line x1="2672.73" y1="1450.08" x2="2672.73" y2="1429.92" style="stroke:#D0D0D0;stroke-width:5.10"/>
	<line x1="2672.73" y1="1412.28" x2="2672.73" y2="1392.12" style="stroke:#D0D0D0;stroke-width:5.10"/>
	<line x1="2672.73" y1="1374.48" x2="2672.73" y2="1354.32" style="stroke:#D0D0D0;stroke-width:5.10"/>
	<line x1="2672.73" y1="1336.68" x2="2672.73" y2="1316.52" style="stroke:#D0D0D0;stroke-width:5.10"/>
	<line x1="2672.73" y1="1298.88" x2="2672.73" y2="1278.72" style="stroke:#D0D0D0;stroke-width:5.10"/>
	<line x1="2672.73" y1="1261.08" x2="2672.73" y2="1240.92" style="stroke:#D0D0D0;stroke-width:5.10"/>
	<line x1="2672.73" y1="1223.28" x2="2672.73" y2="1203.12" style="stroke:#D0D0D0;stroke-width:5.10"/>
	<line x1="2672.73" y1="1185.48" x2="2672.73" y2="1165.32" style="stroke:#D0D0D0;stroke-width:5.10"/>
	<line x1="2672.73" y1="1147.68" x2="2672.73" y2="1127.52" style="stroke:#D0D0D0;stroke-width:5.10"/>
	<line x1="2672.73" y1="1109.88" x2="2672.73" y2="1089.72" style="stroke:#D0D0D0;stroke-width:5.10"/>
	<line x1="2672.73" y1="1072.08" x2="2672.73" y2="1051.92" style="stroke:#D0D0D0;stroke-width:5.10"/>
	<line x1="2672.73" y1="1034.28" x2="2672.73" y2="1014.12" style="stroke:#D0D0D0;stroke-width:5.10"/>
	<line x1="2672.73" y1="996.48" x2="2672.73" y2="976.32" style="stroke:#D0D0D0;stroke-width:5.10"/>
	<line x1="2672.73" y1="958.77" x2="2672.73" y2="938.61" style="stroke:#D0D0D0;stroke-width:5.10"/>
	<line x1="2672.73" y1="920.97" x2="2672.73" y2="900.81" style="stroke:#D0D0D0;stroke-width:5.10"/>
	<line x1="2672.73" y1="883.17" x2="2672.73" y2="863.01" style="stroke:#D0D0D0;stroke-width:5.10"/>
	<line x1="2672.73" y1="845.37" x2="2672.73" y2="825.21" style="stroke:#D0D0D0;stroke-width:5.10"/>
	<line x1="2672.73" y1="807.57" x2="2672.73" y2="787.41" style="stroke:#D0D0D0;stroke-width:5.10"/>
	<line x1="2672.73" y1="769.77" x2="2672.73" y2="749.61" style="stroke:#D0D0D0;stroke-width:5.10"/>
	<line x1="2672.73" y1="731.97" x2="2672.73" y2="711.81" style="stroke:#D0D0D0;stroke-width:5.10"/>
	<line x1="2672.73" y1="694.17" x2="2672.73" y2="674.01" style="stroke:#D0D0D0;stroke-width:5.10"/>
	<line x1="2672.73" y1="656.37" x2="2672.73" y2="636.21" style="stroke:#D0D0D0;stroke-width:5.10"/>
	<line x1="2672.73" y1="618.57" x2="2672.73" y2="598.41" style="stroke:#D0D0D0;stroke-width:5.10"/>
	<line x1="2672.73" y1="580.77" x2="2672.73" y2="560.61" style="stroke:#D0D0D0;stroke-width:5.10"/>
	<line x1="2672.73" y1="542.97" x2="2672.73" y2="522.81" style="stroke:#D0D0D0;stroke-width:5.10"/>
	<line x1="2672.73" y1="505.17" x2="2672.73" y2="485.01" style="stroke:#D0D0D0;stroke-width:5.10"/>
	<line x1="2672.73" y1="467.37" x2="2672.73" y2="447.21" style="stroke:#D0D0D0;stroke-width:5.10"/>
	<line x1="2672.73" y1="429.57" x2="2672.73" y2="409.41" style="stroke:#D0D0D0;stroke-width:5.10"/>
	<line x1="2672.73" y1="391.77" x2="2672.73" y2="371.61" style="stroke:#D0D0D0;stroke-width:5.10"/>
	<line x1="2672.73" y1="354.06" x2="2672.73" y2="333.90" style="stroke:#D0D0D0;stroke-width:5.10"/>
	<line x1="2672.73" y1="316.26" x2="2672.73" y2="296.10" style="stroke:#D0D0D0;stroke-width:5.10"/>
	<line x1="2672.73" y1="278.46" x2="2672.73" y2="258.30" style="stroke:#D0D0D0;stroke-width:5.10"/>
	<line x1="2672.73" y1="240.66" x2="2672.73" y2="220.50" style="stroke:#D0D0D0;stroke-width:5.10"/>
	<line x1="2672.73" y1="202.86" x2="2672.73" y2="182.70" style="stroke:#D0D0D0;stroke-width:5.10"/>
	<line x1="2672.73" y1="165.06" x2="2672.73" y2="144.90" style="stroke:#D0D0D0;stroke-width:5.10"/>
	<line x1="2672.73" y1="127.26" x2="2672.73" y2="107.10" style="stroke:#D0D0D0;stroke-width:5.10"/>
	<line x1="2672.73" y1="89.46" x2="2672.73" y2="88.20" style="stroke:#D0D0D0;stroke-width:5.10"/>
	<line x1="1594.26" y1="1941.39" x2="1594.26" y2="88.20" style="stroke:#C0C0C0;stroke-width:10.21"/>
	<rect x="1594.26" y="1582.47" width="256.05" height="199.80" style="fill:#1F77B4"/>
	<rect x="1597.66" y="1585.87" width="249.25" height="193.00" style="fill:none;stroke:#1F77B4;stroke-width:6.80"/>
	<rect x="953.01" y="1248.66" width="641.25" height="199.89" style="fill:#1F77B4"/>
	<rect x="956.41" y="1252.06" width="634.45" height="193.09" style="fill:none;stroke:#1F77B4;stroke-width:6.80"/>
	<rect x="1594.26" y="914.85" width="50.76" height="199.89" style="fill:#1F77B4"/>
	<rect x="1597.66" y="918.25" width="43.96" height="193.09" style="fill:none;stroke:#1F77B4;stroke-width:6.80"/>
	<rect x="819.63" y="581.04" width="774.63" height="199.89" style="fill:#1F77B4"/>
	<rect x="823.03" y="584.44" width="767.83" height="193.09" style="fill:none;stroke:#1F77B4;stroke-width:6.80"/>
	<rect x="1594.26" y="247.23" width="393.48" height="199.89" style="fill:#1F77B4"/>
	<rect x="1597.66" y="250.63" width="386.68" height="193.09" style="fill:none;stroke:#1F77B4;stroke-width:6.80"/>
	<line x1="396.81" y1="1941.39" x2="2791.80" y2="1941.39" style="stroke:#000000;stroke-width:6.80"/>
	<line x1="515.88" y1="1941.39" x2="515.88" y2="1988.64" style="stroke:#000000;stroke-width:6.80"/>
	<text x="515.88" y="2094.83" style="font-family:'Helvetica';font-size:118.08px;fill:#000000" text-anchor="middle">-0.10</text>
	<line x1="1055.07" y1="1941.39" x2="1055.07" y2="1988.64" style="stroke:#000000;stroke-width:6.80"/>
	<text x="1055.07" y="2094.83" style="font-family:'Helvetica';font-size:118.08px;fill:#000000" text-anchor="middle">-0.05</text>
	<line x1="1594.26" y1="1941.39" x2="1594.26" y2="1988.64" style="stroke:#000000;stroke-width:6.80"/>
	<text x="1594.26" y="2094.83" style="font-family:'Helvetica';font-size:118.08px;fill:#000000" text-anchor="middle">0</text>
	<line x1="2133.54" y1="1941.39" x2="2133.54" y2="1988.64" style="stroke:#000000;stroke-width:6.80"/>
	<text x="2133.54" y="2094.83" style="font-family:'Helvetica';font-size:118.08px;fill:#000000" text-anchor="middle">0.05</text>
	<line x1="2672.73" y1="1941.39" x2="2672.73" y2="1988.64" style="stroke:#000000;stroke-width:6.80"/>
	<text x="2672.73" y="2094.83" style="font-family:'Helvetica';font-size:118.08px;fill:#000000" text-anchor="middle">0.10</text>
	<text x="1594.26" y="2301.15" style="font-family:'Helvetica';font-size:129.96px;fill:#000000" text-anchor="middle">Percentage-points</text>
	<line x1="396.81" y1="1941.39" x2="396.81" y2="88.20" style="stroke:#000000;stroke-width:6.80"/>
	<text x="349.56" y="1723.72" style="font-family:'Helvetica';font-size:118.08px;fill:#000000" text-anchor="end">WA</text>
	<text x="349.56" y="1389.91" style="font-family:'Helvetica';font-size:118.08px;fill:#000000" text-anchor="end">TN</text>
	<text x="349.56" y="1056.10" style="font-family:'Helvetica';font-size:118.08px;fill:#000000" text-anchor="end">MT</text>
	<text x="349.56" y="722.29" style="font-family:'Helvetica';font-size:118.08px;fill:#000000" text-anchor="end">MI</text>
	<text x="349.56" y="388.57" style="font-family:'Helvetica';font-size:118.08px;fill:#000000" text-anchor="end">MA</text>
</svg>
